<svg width="23" height="24" viewBox="0 0 23 24" fill="none" xmlns="http://www.w3.org/2000/svg">
<path d="M23 12.6869C23 18.9379 17.856 23.9969 11.5 23.9969C5.14403 23.9969 0 18.9379 0 12.6869C0 6.43598 5.14403 1.37695 11.5 1.37695C17.829 1.37695 23 6.43598 23 12.6869Z" fill="#E4122B"/>
<path d="M12.5755 6.61914H10.421L6.27344 17.8496H9.20903L9.77461 16.1809L9.80154 16.1015C10.3671 16.1545 10.9327 16.1545 11.5252 16.1545C12.1177 16.1545 12.6833 16.128 13.2758 16.075L13.3027 16.1545L13.8414 17.8231H16.7769L12.5755 6.61914ZM10.5287 13.8501L11.5521 10.8835L12.4948 13.8501C12.1446 13.8766 11.8214 13.8766 11.4713 13.8766C11.1751 13.8766 10.8519 13.8766 10.5287 13.8501Z" fill="white"/>
<path d="M15.4303 5.69178H13.168L15.2687 -0.00292969H17.531L15.4303 5.69178Z" fill="white"/>
</svg>
