<svg width="20" height="21" viewBox="0 0 20 21" fill="none" xmlns="http://www.w3.org/2000/svg">
<g clip-path="url(#clip0_862_333)">
<path d="M2.5 14.6667C2.5 15.1269 2.8731 15.5 3.33333 15.5H16.6667C17.1269 15.5 17.5 15.1269 17.5 14.6667C17.5 14.2064 17.1269 13.8333 16.6667 13.8333H3.33333C2.8731 13.8333 2.5 14.2064 2.5 14.6667ZM2.5 10.5C2.5 10.9602 2.8731 11.3333 3.33333 11.3333H16.6667C17.1269 11.3333 17.5 10.9602 17.5 10.5C17.5 10.0398 17.1269 9.66667 16.6667 9.66667H3.33333C2.8731 9.66667 2.5 10.0398 2.5 10.5ZM3.33333 5.5C2.8731 5.5 2.5 5.8731 2.5 6.33333C2.5 6.79357 2.8731 7.16667 3.33333 7.16667H16.6667C17.1269 7.16667 17.5 6.79357 17.5 6.33333C17.5 5.8731 17.1269 5.5 16.6667 5.5H3.33333Z" fill="#E4122B"/>
</g>
<defs>
<clipPath id="clip0_862_333">
<rect width="20" height="20" fill="white" transform="translate(0 0.5)"/>
</clipPath>
</defs>
</svg>
