<svg width="20" height="21" viewBox="0 0 20 21" fill="none" xmlns="http://www.w3.org/2000/svg">
<g clip-path="url(#clip0_862_1487)">
<path d="M15.2457 6.42916C15.5701 6.1047 15.5701 5.57863 15.2457 5.25416C14.9212 4.9297 14.3951 4.9297 14.0707 5.25416L10.7069 8.61789C10.3164 9.00841 9.68326 9.00842 9.29273 8.61789L5.929 5.25416C5.60454 4.9297 5.07847 4.9297 4.754 5.25416C4.42954 5.57863 4.42954 6.1047 4.754 6.42916L8.11773 9.79289C8.50825 10.1834 8.50826 10.8166 8.11773 11.2071L4.754 14.5708C4.42954 14.8953 4.42954 15.4214 4.754 15.7458C5.07847 16.0703 5.60454 16.0703 5.929 15.7458L9.29273 12.3821C9.68325 11.9916 10.3164 11.9916 10.7069 12.3821L14.0707 15.7458C14.3951 16.0703 14.9212 16.0703 15.2457 15.7458C15.5701 15.4214 15.5701 14.8953 15.2457 14.5708L11.8819 11.2071C11.4914 10.8166 11.4914 10.1834 11.8819 9.79289L15.2457 6.42916Z" fill="#E4122B"/>
</g>
<defs>
<clipPath id="clip0_862_1487">
<rect width="20" height="20" fill="white" transform="translate(0 0.5)"/>
</clipPath>
</defs>
</svg>
