<svg width="55" height="55" viewBox="0 0 55 55" fill="none" xmlns="http://www.w3.org/2000/svg">
<g clip-path="url(#clip0_82_379)">
<path d="M27.5 20.9516C26.2049 20.952 24.9391 21.3365 23.8626 22.0564C22.786 22.7762 21.947 23.7991 21.4518 24.9957C20.9565 26.1923 20.8272 27.5089 21.0801 28.779C21.3331 30.0492 21.957 31.2157 22.8729 32.1313C23.7888 33.0469 24.9556 33.6703 26.2258 33.9228C27.496 34.1753 28.8126 34.0454 30.009 33.5497C31.2054 33.054 32.228 32.2147 32.9475 31.1379C33.6669 30.061 34.0509 28.7951 34.0509 27.5C34.0496 25.7632 33.3589 24.098 32.1306 22.8701C30.9023 21.6423 29.2368 20.9522 27.5 20.9516ZM42.8104 15.9181C42.477 15.0732 41.9736 14.3059 41.3314 13.6637C40.6892 13.0215 39.9218 12.5181 39.077 12.1847C36.4989 11.167 30.3605 11.3953 27.5 11.3953C24.6395 11.3953 18.5073 11.1584 15.9218 12.1847C15.0769 12.5181 14.3096 13.0215 13.6674 13.6637C13.0252 14.3059 12.5218 15.0732 12.1884 15.9181C11.1719 18.4962 11.399 24.6407 11.399 27.4988C11.399 30.3568 11.1719 36.494 12.1933 39.0807C12.5267 39.9255 13.0301 40.6929 13.6723 41.3351C14.3145 41.9773 15.0818 42.4807 15.9267 42.8141C18.5048 43.8318 24.6432 43.6035 27.5049 43.6035C30.3666 43.6035 36.4964 43.8404 39.0819 42.8141C39.9268 42.4807 40.6941 41.9773 41.3363 41.3351C41.9785 40.6929 42.4819 39.9255 42.8153 39.0807C43.8404 36.5026 43.6047 30.358 43.6047 27.5C43.6047 24.642 43.8404 18.506 42.8153 15.9193L42.8104 15.9181ZM27.5 37.567C25.5089 37.567 23.5626 36.9765 21.9071 35.8704C20.2516 34.7642 18.9613 33.192 18.1993 31.3525C17.4374 29.513 17.238 27.4888 17.6265 25.536C18.0149 23.5832 18.9737 21.7895 20.3816 20.3816C21.7895 18.9737 23.5832 18.0149 25.536 17.6265C27.4888 17.238 29.513 17.4374 31.3525 18.1993C33.192 18.9613 34.7642 20.2516 35.8704 21.9071C36.9765 23.5626 37.567 25.5089 37.567 27.5C37.5686 28.8225 37.3093 30.1323 36.804 31.3544C36.2986 32.5765 35.5571 33.6869 34.622 34.622C33.6869 35.5571 32.5765 36.2986 31.3544 36.804C30.1323 37.3093 28.8225 37.5686 27.5 37.567ZM37.9819 19.3605C37.5171 19.3607 37.0627 19.2231 36.6761 18.9651C36.2895 18.707 35.9882 18.3401 35.8101 17.9108C35.6321 17.4814 35.5854 17.0089 35.6759 16.553C35.7664 16.0972 35.9901 15.6784 36.3187 15.3496C36.6473 15.0209 37.066 14.7969 37.5218 14.7062C37.9777 14.6154 38.4502 14.6619 38.8796 14.8397C39.3091 15.0175 39.6761 15.3187 39.9344 15.7051C40.1926 16.0916 40.3305 16.5459 40.3305 17.0107C40.3318 17.3194 40.2721 17.6252 40.1549 17.9108C40.0377 18.1963 39.8653 18.4559 39.6476 18.6747C39.4298 18.8935 39.1711 19.0671 38.8861 19.1856C38.6011 19.3041 38.2955 19.3652 37.9868 19.3654L37.9819 19.3605ZM49.1071 0H5.89286C4.32997 0 2.8311 0.620853 1.72598 1.72598C0.620853 2.8311 0 4.32997 0 5.89286L0 49.1071C0 50.67 0.620853 52.1689 1.72598 53.274C2.8311 54.3791 4.32997 55 5.89286 55H49.1071C50.67 55 52.1689 54.3791 53.274 53.274C54.3791 52.1689 55 50.67 55 49.1071V5.89286C55 4.32997 54.3791 2.8311 53.274 1.72598C52.1689 0.620853 50.67 0 49.1071 0ZM47.0054 35.6027C46.847 38.7492 46.1288 41.5373 43.8318 43.8281C41.5348 46.119 38.7492 46.8519 35.6064 47.0017C32.3641 47.1846 22.6433 47.1846 19.401 47.0017C16.2545 46.8433 13.4762 46.1239 11.1756 43.8281C8.87489 41.5324 8.15179 38.7431 8.00201 35.6027C7.81909 32.3592 7.81909 22.6372 8.00201 19.3973C8.16038 16.2508 8.86998 13.4627 11.1756 11.1719C13.4811 8.88103 16.2667 8.1567 19.401 8.00692C22.6433 7.824 32.3641 7.824 35.6064 8.00692C38.7529 8.16529 41.5397 8.88471 43.8318 11.1805C46.1239 13.4762 46.8556 16.2655 47.0054 19.4121C47.1883 22.6433 47.1883 32.3567 47.0054 35.6027Z" fill="#E4122B"/>
</g>
<defs>
<clipPath id="clip0_82_379">
<rect width="55" height="55" rx="13" fill="white"/>
</clipPath>
</defs>
</svg>
