<svg width="40" height="70" viewBox="0 0 40 70" fill="none" xmlns="http://www.w3.org/2000/svg">
<path d="M20 42.5C18.2812 42.5 16.6146 42.3047 15 41.9141V67.5C15 68.1771 15.2474 68.763 15.7422 69.2578C16.237 69.7526 16.8229 70 17.5 70H22.5C23.1771 70 23.763 69.7526 24.2578 69.2578C24.7526 68.763 25 68.1771 25 67.5V41.9141C23.3854 42.3047 21.7188 42.5 20 42.5ZM20 0C14.4792 0 9.76562 1.95312 5.85938 5.85938C1.95312 9.76562 0 14.4792 0 20C0 25.5208 1.95312 30.2344 5.85938 34.1406C9.76562 38.0469 14.4792 40 20 40C25.5208 40 30.2344 38.0469 34.1406 34.1406C38.0469 30.2344 40 25.5208 40 20C40 14.4792 38.0469 9.76562 34.1406 5.85938C30.2344 1.95312 25.5208 0 20 0ZM20 8.75C19.6354 8.75 19.3359 8.63281 19.1016 8.39844C18.8672 8.16406 18.75 7.86458 18.75 7.5C18.75 7.13542 18.8672 6.83594 19.1016 6.60156C19.3359 6.36719 19.6354 6.25 20 6.25C23.8021 6.25 27.0443 7.59115 29.7266 10.2734C32.4089 12.9557 33.75 16.1979 33.75 20C33.75 20.3646 33.6328 20.6641 33.3984 20.8984C33.1641 21.1328 32.8646 21.25 32.5 21.25C32.1354 21.25 31.8359 21.1328 31.6016 20.8984C31.3672 20.6641 31.25 20.3646 31.25 20C31.25 16.901 30.1497 14.2513 27.9492 12.0508C25.7487 9.85026 23.099 8.75 20 8.75Z" fill="#E4122B"/>
</svg>
