<svg width="20" height="20" viewBox="0 0 20 20" fill="none" xmlns="http://www.w3.org/2000/svg">
<path d="M1.50141 7.33985C1.48087 7.70697 1.6863 8.04908 2.02035 8.20272L8.72278 11.2773L11.7971 17.9792C11.9436 18.2972 12.2616 18.5 12.609 18.5L12.6599 18.4982C12.8392 18.4882 13.0113 18.4243 13.1537 18.315C13.2961 18.2057 13.4023 18.056 13.4584 17.8855L18.4558 2.67177C18.5603 2.35199 18.4763 1.99916 18.2387 1.76067C18.0011 1.52217 17.6492 1.44089 17.3277 1.54361L2.11413 6.54219C1.94352 6.59791 1.79372 6.70388 1.68438 6.84622C1.57504 6.98857 1.51127 7.16063 1.50141 7.33985Z" fill="#E4122B"/>
</svg>
