<svg width="20" height="20" viewBox="0 0 20 20" fill="none" xmlns="http://www.w3.org/2000/svg">
<path d="M12.6673 13.3711L14.0451 11.9928C14.2307 11.8094 14.4654 11.6839 14.7209 11.6315C14.9764 11.5791 15.2416 11.602 15.4844 11.6974L17.1635 12.3681C17.4088 12.4677 17.6191 12.6377 17.768 12.8567C17.9169 13.0758 17.9976 13.3339 18 13.5988V16.6753C17.9986 16.8555 17.9607 17.0335 17.8887 17.1986C17.8167 17.3638 17.712 17.5126 17.581 17.6362C17.45 17.7598 17.2953 17.8556 17.1263 17.9178C16.9573 17.9801 16.7775 18.0074 16.5976 17.9983C4.83136 17.2661 2.45719 7.29791 2.00819 3.48294C1.98735 3.2956 2.00639 3.10596 2.06407 2.92651C2.12175 2.74706 2.21675 2.58186 2.34283 2.44178C2.46891 2.3017 2.62321 2.18992 2.79558 2.11378C2.96794 2.03764 3.15447 1.99887 3.34289 2.00003H6.31368C6.57878 2.00081 6.83758 2.08092 7.0568 2.23005C7.27602 2.37918 7.44563 2.59051 7.54382 2.83686L8.21424 4.51667C8.31281 4.75854 8.33796 5.02409 8.28654 5.28017C8.23513 5.53624 8.10944 5.77149 7.92516 5.95652L6.5474 7.33483C6.5474 7.33483 7.34084 12.7065 12.6673 13.3711Z" fill="#E4122B"/>
</svg>
