<svg width="55" height="55" viewBox="0 0 55 55" fill="none" xmlns="http://www.w3.org/2000/svg">
<g clip-path="url(#clip0_82_374)">
<path d="M35.9405 0H19.0573C3.65039 0 -0.00195312 3.65234 -0.00195312 19.0592V35.9425C-0.00195312 51.3494 3.65039 55.0017 19.0573 55.0017H35.9405C51.3474 55.0017 54.9998 51.3494 54.9998 35.9425V19.0592C54.9998 3.65234 51.3113 0 35.9405 0ZM44.4002 39.2356H40.4076C38.8951 39.2356 38.4293 38.0359 35.7085 35.2791C33.3452 32.988 32.2985 32.6838 31.7159 32.6838C30.8926 32.6838 30.6588 32.9158 30.6588 34.045V37.6527C30.6588 38.6203 30.3546 39.2013 27.7937 39.2013C23.5587 39.2013 18.8596 36.6403 15.5648 31.8691C10.5959 24.8772 9.23633 19.6402 9.23633 18.5573C9.23633 17.9747 9.46836 17.4298 10.5873 17.4298H14.5885C15.6009 17.4298 15.9859 17.8956 16.3795 18.9784C18.3577 24.6898 21.6526 29.6931 23.0121 29.6931C23.514 29.6931 23.746 29.4611 23.746 28.1806V22.2819C23.593 19.5611 22.1613 19.3273 22.1613 18.3614C22.1613 17.8956 22.5463 17.4298 23.1634 17.4298H29.4557C30.3065 17.4298 30.6193 17.8956 30.6193 18.8977V26.8555C30.6193 27.7148 31.0043 28.0191 31.2363 28.0191C31.7382 28.0191 32.1679 27.7148 33.0977 26.7833C35.9715 23.5606 38.0305 18.5917 38.0305 18.5917C38.2987 18.0091 38.7645 17.4642 39.7768 17.4642H43.778C44.9777 17.4642 45.2459 18.0813 44.9777 18.9406C44.4759 21.2678 39.5791 28.1789 39.5791 28.1789C39.158 28.8767 38.9965 29.1809 39.5791 29.9595C40.0088 30.5422 41.4062 31.7505 42.336 32.8333C44.0462 34.7755 45.361 36.4048 45.7116 37.5323C46.1052 38.6512 45.5243 39.2339 44.3951 39.2339L44.4002 39.2356Z" fill="#5480DA"/>
</g>
<defs>
<clipPath id="clip0_82_374">
<rect width="55" height="55" fill="white"/>
</clipPath>
</defs>
</svg>
