<svg width="106" height="170" viewBox="0 0 106 170" fill="none" xmlns="http://www.w3.org/2000/svg">
<mask id="path-1-outside-1_83_425" maskUnits="userSpaceOnUse" x="-1" y="-1" width="108" height="172" fill="black">
<rect fill="white" x="-1" y="-1" width="108" height="172"/>
<path d="M52.9 117.133C49.4778 117.133 46.7556 116.044 44.7333 113.867C42.8667 111.533 41.9333 108.422 41.9333 104.533C41.9333 100.022 42.4778 95.8222 43.5667 91.9333C44.6556 87.8889 46.3667 83.8444 48.7 79.8C51.1889 75.7555 54.4556 71.6333 58.5 67.4333C61.3 64.1667 63.5556 61.3667 65.2667 59.0333C67.1333 56.5444 68.3778 54.2111 69 52.0333C69.7778 49.7 70.1667 47.3667 70.1667 45.0333C70.1667 40.6778 68.5333 37.2555 65.2667 34.7667C62.1556 32.2778 57.6444 31.0333 51.7333 31.0333C46.1333 31.0333 40.9222 31.7333 36.1 33.1333C31.4333 34.5333 26.8444 36.5555 22.3333 39.2C18.2889 41.3778 14.6333 42.2333 11.3667 41.7667C8.25556 41.1444 5.76667 39.7444 3.9 37.5667C2.03333 35.2333 0.944445 32.5111 0.633333 29.4C0.322222 26.2889 1.02222 23.2555 2.73333 20.3C4.44444 17.1889 7.32222 14.4666 11.3667 12.1333C17.7444 8.39998 24.8222 5.59998 32.6 3.73331C40.3778 1.86665 47.6111 0.933321 54.3 0.933321C64.5667 0.933321 73.5889 2.64443 81.3667 6.06666C89.1445 9.48887 95.1333 14.1555 99.3333 20.0667C103.689 25.9778 105.867 32.9 105.867 40.8333C105.867 45.6555 105.167 50.1667 103.767 54.3667C102.367 58.5667 100.111 62.7667 97 66.9667C93.8889 71.0111 89.6111 75.2889 84.1667 79.8C79.3445 83.8444 75.5333 87.5 72.7333 90.7667C69.9333 93.8778 67.9111 96.9111 66.6667 99.8667C65.4222 102.667 64.5667 105.7 64.1 108.967C63.6333 111.3 62.4667 113.244 60.6 114.8C58.8889 116.356 56.3222 117.133 52.9 117.133ZM52.4333 169.167C46.2111 169.167 41.2333 167.3 37.5 163.567C33.9222 159.833 32.1333 155.011 32.1333 149.1C32.1333 143.344 33.9222 138.678 37.5 135.1C41.2333 131.367 46.2111 129.5 52.4333 129.5C58.6556 129.5 63.4778 131.367 66.9 135.1C70.4778 138.678 72.2667 143.344 72.2667 149.1C72.2667 155.011 70.4778 159.833 66.9 163.567C63.4778 167.3 58.6556 169.167 52.4333 169.167Z"/>
</mask>
<path d="M44.7333 113.867L43.9525 114.491L43.9755 114.52L44.0005 114.547L44.7333 113.867ZM43.5667 91.9333L44.5297 92.203L44.5323 92.1933L43.5667 91.9333ZM48.7 79.8L47.8483 79.2759L47.8409 79.288L47.8338 79.3003L48.7 79.8ZM58.5 67.4333L59.2203 68.127L59.2404 68.1061L59.2593 68.0841L58.5 67.4333ZM65.2667 59.0333L64.4666 58.4333L64.4603 58.442L65.2667 59.0333ZM69 52.0333L68.0513 51.7171L68.0444 51.7377L68.0385 51.7586L69 52.0333ZM65.2667 34.7667L64.642 35.5475L64.6512 35.5549L64.6606 35.5621L65.2667 34.7667ZM36.1 33.1333L35.8212 32.1729L35.8127 32.1755L36.1 33.1333ZM22.3333 39.2L22.8074 40.0805L22.8234 40.0719L22.8391 40.0627L22.3333 39.2ZM11.3667 41.7667L11.1706 42.7472L11.1978 42.7527L11.2252 42.7566L11.3667 41.7667ZM3.9 37.5667L3.11913 38.1914L3.12972 38.2046L3.14074 38.2174L3.9 37.5667ZM0.633333 29.4L1.62837 29.3005H1.62837L0.633333 29.4ZM2.73333 20.3L3.59876 20.801L3.60426 20.7915L3.60955 20.7819L2.73333 20.3ZM11.3667 12.1333L11.8664 12.9995L11.8718 12.9963L11.3667 12.1333ZM32.6 3.73331L32.3666 2.76093L32.6 3.73331ZM81.3667 6.06666L80.9639 6.98197L81.3667 6.06666ZM99.3333 20.0667L98.5182 20.6459L98.5232 20.6529L98.5283 20.6599L99.3333 20.0667ZM103.767 54.3667L102.818 54.0504L103.767 54.3667ZM97 66.9667L97.7926 67.5764L97.7982 67.5692L97.8036 67.5619L97 66.9667ZM84.1667 79.8L83.5286 79.03L83.5241 79.0338L84.1667 79.8ZM72.7333 90.7667L73.4766 91.4356L73.4847 91.4266L73.4926 91.4174L72.7333 90.7667ZM66.6667 99.8667L67.5805 100.273L67.5845 100.264L67.5883 100.255L66.6667 99.8667ZM64.1 108.967L65.0806 109.163L65.086 109.136L65.09 109.108L64.1 108.967ZM60.6 114.8L59.9598 114.032L59.9433 114.046L59.9273 114.06L60.6 114.8ZM37.5 163.567L36.778 164.259L36.7854 164.266L36.7929 164.274L37.5 163.567ZM37.5 135.1L38.2071 135.807L37.5 135.1ZM66.9 135.1L66.1628 135.776L66.1775 135.792L66.1929 135.807L66.9 135.1ZM66.9 163.567L66.178 162.875L66.1703 162.883L66.1628 162.891L66.9 163.567ZM52.9 116.133C49.7096 116.133 47.2698 115.129 45.4661 113.186L44.0005 114.547C46.2413 116.96 49.2459 118.133 52.9 118.133V116.133ZM45.5142 113.242C43.8273 111.133 42.9333 108.264 42.9333 104.533H40.9333C40.9333 108.58 41.9061 111.933 43.9525 114.491L45.5142 113.242ZM42.9333 104.533C42.9333 100.103 43.468 95.9945 44.5296 92.203L42.6037 91.6637C41.4876 95.6499 40.9333 99.9416 40.9333 104.533H42.9333ZM44.5323 92.1933C45.5962 88.2417 47.2714 84.2774 49.5662 80.2997L47.8338 79.3003C45.462 83.4115 43.7149 87.536 42.6011 91.6734L44.5323 92.1933ZM49.5517 80.3241C51.9956 76.3527 55.2148 72.2865 59.2203 68.127L57.7797 66.7397C53.6963 70.9801 50.3822 75.1584 47.8483 79.2759L49.5517 80.3241ZM59.2593 68.0841C62.0686 64.8065 64.3417 61.9856 66.0731 59.6247L64.4603 58.442C62.7694 60.7477 60.5314 63.5268 57.7408 66.7825L59.2593 68.0841ZM66.0667 59.6333C67.9811 57.0808 69.2958 54.6381 69.9615 52.308L68.0385 51.7586C67.4598 53.7841 66.2856 56.0081 64.4667 58.4333L66.0667 59.6333ZM69.9487 52.3495C70.7586 49.9198 71.1667 47.4798 71.1667 45.0333H69.1667C69.1667 47.2535 68.797 49.4802 68.0513 51.7171L69.9487 52.3495ZM71.1667 45.0333C71.1667 40.3877 69.4046 36.6622 65.8727 33.9712L64.6606 35.5621C67.6621 37.8489 69.1667 40.9679 69.1667 45.0333H71.1667ZM65.8914 33.9858C62.5351 31.3007 57.7659 30.0333 51.7333 30.0333V32.0333C57.523 32.0333 61.7761 33.2548 64.642 35.5475L65.8914 33.9858ZM51.7333 30.0333C46.0497 30.0333 40.7438 30.7438 35.8212 32.173L36.3788 34.0937C41.1007 32.7228 46.217 32.0333 51.7333 32.0333V30.0333ZM35.8127 32.1755C31.0643 33.6 26.4025 35.6555 21.8276 38.3373L22.8391 40.0627C27.2864 37.4556 31.8024 35.4667 36.3874 34.0911L35.8127 32.1755ZM21.8592 38.3195C17.931 40.4347 14.4944 41.2033 11.5081 40.7767L11.2252 42.7566C14.7722 43.2633 18.6468 42.3208 22.8074 40.0805L21.8592 38.3195ZM11.5628 40.7861C8.64632 40.2028 6.36481 38.9057 4.65926 36.9159L3.14074 38.2174C5.16853 40.5832 7.86479 42.0861 11.1706 42.7472L11.5628 40.7861ZM4.68087 36.942C2.94054 34.7665 1.92121 32.2289 1.62837 29.3005L-0.361704 29.4995C-0.0323234 32.7933 1.12613 35.7001 3.11913 38.1914L4.68087 36.942ZM1.62837 29.3005C1.34008 26.4176 1.98258 23.5926 3.59876 20.801L1.86791 19.799C0.0618606 22.9185 -0.695638 26.1601 -0.361704 29.4995L1.62837 29.3005ZM3.60955 20.7819C5.20901 17.8738 7.93155 15.2696 11.8664 12.9995L10.8669 11.2671C6.7129 13.6637 3.67988 16.5039 1.85712 19.8181L3.60955 20.7819ZM11.8718 12.9963C18.1582 9.31651 25.1433 6.55133 32.8334 4.7057L32.3666 2.76093C24.5012 4.64864 17.3307 7.48346 10.8615 11.2703L11.8718 12.9963ZM32.8334 4.7057C40.5491 2.85393 47.7033 1.93332 54.3 1.93332V-0.0666809C47.519 -0.0666809 40.2065 0.879372 32.3666 2.76093L32.8334 4.7057ZM54.3 1.93332C64.4563 1.93332 73.3366 3.62596 80.9639 6.98197L81.7694 5.15134C73.8412 1.66291 64.6771 -0.0666809 54.3 -0.0666809V1.93332ZM80.9639 6.98197C88.6051 10.3441 94.4396 14.9056 98.5182 20.6459L100.149 19.4874C95.8271 13.4055 89.6838 8.63365 81.7694 5.15134L80.9639 6.98197ZM98.5283 20.6599C102.747 26.385 104.867 33.0953 104.867 40.8333H106.867C106.867 32.7047 104.631 25.5705 100.138 19.4735L98.5283 20.6599ZM104.867 40.8333C104.867 45.5576 104.181 49.9611 102.818 54.0504L104.715 54.6829C106.152 50.3722 106.867 45.7535 106.867 40.8333H104.867ZM102.818 54.0504C101.457 58.1342 99.2558 62.2413 96.1964 66.3714L97.8036 67.5619C100.966 63.292 103.277 58.9991 104.715 54.6829L102.818 54.0504ZM96.2074 66.3569C93.1553 70.3247 88.936 74.5496 83.5287 79.03L84.8047 80.57C90.2863 76.0282 94.6225 71.6975 97.7926 67.5764L96.2074 66.3569ZM83.5241 79.0338C78.6772 83.0989 74.8219 86.7934 71.9741 90.1159L73.4926 91.4174C76.2447 88.2066 80.0117 84.59 84.8093 80.5662L83.5241 79.0338ZM71.99 90.0977C69.1369 93.2679 67.0438 96.3941 65.745 99.4786L67.5883 100.255C68.7785 97.4281 70.7298 94.4876 73.4766 91.4356L71.99 90.0977ZM65.7529 99.4605C64.4682 102.351 63.5888 105.474 63.1101 108.825L65.09 109.108C65.5446 105.926 66.3763 102.982 67.5805 100.273L65.7529 99.4605ZM63.1194 108.771C62.6986 110.875 61.655 112.619 59.9598 114.032L61.2402 115.568C63.2783 113.87 64.5681 111.725 65.0806 109.163L63.1194 108.771ZM59.9273 114.06C58.4716 115.383 56.1904 116.133 52.9 116.133V118.133C56.454 118.133 59.3062 117.328 61.2727 115.54L59.9273 114.06ZM52.4333 168.167C46.4254 168.167 41.7197 166.372 38.2071 162.86L36.7929 164.274C40.747 168.228 45.9969 170.167 52.4333 170.167V168.167ZM38.222 162.875C34.8484 159.354 33.1333 154.793 33.1333 149.1H31.1333C31.1333 155.229 32.996 160.312 36.778 164.259L38.222 162.875ZM33.1333 149.1C33.1333 143.57 34.8432 139.171 38.2071 135.807L36.7929 134.393C33.0013 138.185 31.1333 143.119 31.1333 149.1H33.1333ZM38.2071 135.807C41.7197 132.295 46.4254 130.5 52.4333 130.5V128.5C45.9969 128.5 40.747 130.439 36.7929 134.393L38.2071 135.807ZM52.4333 130.5C58.4443 130.5 62.9721 132.295 66.1628 135.776L67.6372 134.424C63.9834 130.438 58.8668 128.5 52.4333 128.5V130.5ZM66.1929 135.807C69.5568 139.171 71.2667 143.57 71.2667 149.1H73.2667C73.2667 143.119 71.3987 138.185 67.6071 134.393L66.1929 135.807ZM71.2667 149.1C71.2667 154.793 69.5516 159.354 66.178 162.875L67.622 164.259C71.404 160.312 73.2667 155.229 73.2667 149.1H71.2667ZM66.1628 162.891C62.9721 166.372 58.4443 168.167 52.4333 168.167V170.167C58.8668 170.167 63.9834 168.228 67.6372 164.242L66.1628 162.891Z" fill="white" mask="url(#path-1-outside-1_83_425)"/>
</svg>
