<svg viewBox="0 0 910 560" fill="none" xmlns="http://www.w3.org/2000/svg">
<rect width="910" height="560" rx="20" fill="#E8EEFA"/>
<path d="M684 454H688V450H692V446H696V442H700M684 445L691 438V442M687 438H691" stroke="#39071F" stroke-width="1.5" stroke-linecap="round" stroke-linejoin="round"/>
<path d="M406 348H410V344H414V340H418V336H422M406 339L413 332V336M409 332H413" stroke="#39071F" stroke-width="1.5" stroke-linecap="round" stroke-linejoin="round"/>
<path d="M139 439H143V435H147V431H151V427H155M139 430L146 423V427M142 423H146" stroke="#39071F" stroke-width="1.5" stroke-linecap="round" stroke-linejoin="round"/>
<rect id="A8" x="718.5" y="365.5" width="134" height="133" fill="#8E4457" stroke="white" stroke-width="3"/>
<rect id="A6" x="718.5" y="152.5" width="134" height="159" fill="#8E4457" stroke="white" stroke-width="3"/>
<rect id="A7" x="621.5" y="198.5" width="97" height="113" fill="#8E4457" stroke="white" stroke-width="3"/>
<rect id="A2" x="385.5" y="63.5" width="98" height="248" fill="#8E4457" stroke="white" stroke-width="3"/>
<rect id="A3" x="483.5" y="63.5" width="140" height="139" fill="#8E4457" stroke="white" stroke-width="3"/>
<rect id="A5" x="718.5" y="63.5" width="134" height="89" fill="#8E4457" stroke="white" stroke-width="3"/>
<rect id="A1" x="257.5" y="63.5" width="129" height="119" fill="#8E4457" stroke="white" stroke-width="3"/>
<rect id="A13" x="580.5" y="198.5" width="43" height="113" fill="#FF8957" stroke="white" stroke-width="3"/>
<rect id="A12" x="483.5" y="198.5" width="99" height="113" fill="#E06B4E" stroke="white" stroke-width="3"/>
<rect id="A9" x="61.5" y="63.5" width="96" height="119" fill="#E06B4E" stroke="white" stroke-width="3"/>
<mask id="path-15-inside-1_49_145" fill="white">
<path fill-rule="evenodd" clip-rule="evenodd" d="M631 364H337.21V432H256V500H631V364Z"/>
</mask>
<path id="A11" fill-rule="evenodd" clip-rule="evenodd" d="M631 364H337.21V432H256V500H631V364Z" fill="#E4122B"/>
<path d="M337.21 364V361H334.21V364H337.21ZM631 364H634V361H631V364ZM337.21 432V435H340.21V432H337.21ZM256 432V429H253V432H256ZM256 500H253V503H256V500ZM631 500V503H634V500H631ZM337.21 367H631V361H337.21V367ZM334.21 364V432H340.21V364H334.21ZM337.21 429H256V435H337.21V429ZM259 500V432H253V500H259ZM631 497H256V503H631V497ZM628 364V500H634V364H628Z" fill="white" mask="url(#path-15-inside-1_49_145)"/>
<mask id="path-17-inside-2_49_145" fill="white">
<path fill-rule="evenodd" clip-rule="evenodd" d="M60 278L111 278L111 248L159 248L159 217L60 217L60 278Z"/>
</mask>
<path id="A15" fill-rule="evenodd" clip-rule="evenodd" d="M60 278L111 278L111 248L159 248L159 217L60 217L60 278Z" fill="#E4122B"/>
<path d="M111 278L111 281L114 281L114 278L111 278ZM60 278L57 278L57 281L60 281L60 278ZM111 248L111 245L108 245L108 248L111 248ZM159 248L159 251L162 251L162 248L159 248ZM159 217L162 217L162 214L159 214L159 217ZM60 217L60 214L57 214L57 217L60 217ZM111 275L60 275L60 281L111 281L111 275ZM114 278L114 248L108 248L108 278L114 278ZM111 251L159 251L159 245L111 245L111 251ZM156 217L156 248L162 248L162 217L156 217ZM60 220L159 220L159 214L60 214L60 220ZM63 278L63 217L57 217L57 278L63 278Z" fill="white" mask="url(#path-17-inside-2_49_145)"/>
<rect id="A17" x="629.5" y="365.5" width="36" height="36" fill="#B44642" stroke="white" stroke-width="3"/>
<rect id="A14" x="629.5" y="404.5" width="36" height="77" fill="#FF8957" stroke="white" stroke-width="3"/>
<rect id="" x="79.5" y="329.5" width="29" height="43" fill="#D28257" stroke="white" stroke-width="3"/>
<rect id="" x="144.5" y="455.5" width="29" height="43" fill="#D28257" stroke="white" stroke-width="3"/>
<rect id="" x="61.5" y="421.5" width="66" height="77" fill="#D28257" stroke="white" stroke-width="3"/>
<rect id="A16" x="61.5" y="218.5" width="36" height="96" transform="rotate(-90 61.5 218.5)" fill="#FF8957" stroke="white" stroke-width="3"/>
<rect id="A12" x="676.5" y="465.5" width="31" height="16" fill="#B44642" stroke="white" stroke-width="3"/>
<rect id="" x="498.5" y="333.5" width="44" height="16" fill="#B44642" stroke="white" stroke-width="3"/>
<rect id="" x="439.5" y="333.5" width="44" height="16" fill="#8E4457" stroke="white" stroke-width="3"/>
<rect id="" x="668.5" y="333.5" width="50" height="16" fill="#8E4457" stroke="white" stroke-width="3"/>
<rect id="" x="557.5" y="333.5" width="44" height="16" fill="#B44642" stroke="white" stroke-width="3"/>
<mask id="path-30-inside-3_49_145" fill="white">
<path fill-rule="evenodd" clip-rule="evenodd" d="M388 181H256V236.759H339V313H388V181Z"/>
</mask>
<path fill-rule="evenodd" clip-rule="evenodd" d="M388 181H256V236.759H339V313H388V181Z" fill="#8E4457"/>
<path d="M256 181V178H253V181H256ZM388 181H391V178H388V181ZM256 236.759H253V239.759H256V236.759ZM339 236.759H342V233.759H339V236.759ZM339 313H336V316H339V313ZM388 313V316H391V313H388ZM256 184H388V178H256V184ZM259 236.759V181H253V236.759H259ZM256 239.759H339V233.759H256V239.759ZM336 236.759V313H342V236.759H336ZM388 310H339V316H388V310ZM385 181V313H391V181H385Z" fill="white" mask="url(#path-30-inside-3_49_145)"/>
<rect x="623.5" y="63.5" width="95" height="135" fill="#8E4457" stroke="white" stroke-width="3"/>
<path fill-rule="evenodd" clip-rule="evenodd" d="M248.352 280.671C249.932 281.045 251.363 281.404 251.532 281.468C251.978 281.638 251.908 282.2 251.378 282.694C251.124 282.93 250.917 283.213 250.917 283.322C250.917 283.432 252.286 284.877 253.958 286.534C255.631 288.192 257 289.617 257 289.703C257 289.964 254.746 292.203 254.483 292.203C254.348 292.203 252.861 290.846 251.18 289.186C249.498 287.526 248.061 286.169 247.985 286.169C247.909 286.169 247.653 286.374 247.415 286.626C246.877 287.193 246.356 287.212 246.125 286.671C246.028 286.445 245.649 284.96 245.283 283.371C244.755 281.076 244.664 280.428 244.841 280.217C245.118 279.885 244.925 279.86 248.352 280.671ZM246.435 282.74C246.579 283.368 246.781 284.2 246.884 284.588L247.071 285.294L247.485 284.909C247.713 284.696 247.976 284.523 248.07 284.523C248.163 284.523 249.628 285.898 251.324 287.578L254.407 290.633L254.878 290.194L255.348 289.755L252.303 286.715C250.628 285.043 249.258 283.563 249.258 283.425C249.258 283.287 249.431 282.992 249.642 282.769L250.026 282.364L248.49 281.994C246.053 281.408 246.124 281.382 246.435 282.74ZM226.953 284.377C227.441 284.529 230.435 287.382 239.18 296.026C245.55 302.322 250.99 307.803 251.269 308.205C252.193 309.539 252.442 310.428 252.535 312.731L252.621 314.88L253.566 314.881C255.676 314.883 256.804 315.661 256.955 317.219C257.06 318.309 256.681 319.133 255.839 319.642C255.296 319.971 254.887 319.999 250.736 320L246.223 320.001L234.605 308.48L222.986 296.958H221.065C219.527 296.958 218.993 296.886 218.39 296.596C217.46 296.15 216.999 295.411 217 294.37C217.001 292.776 218.086 291.838 219.928 291.838H220.841L220.902 289.491C220.96 287.247 220.987 287.104 221.52 286.25C222.333 284.947 223.522 284.269 225.088 284.217C225.759 284.194 226.599 284.266 226.953 284.377ZM243.707 288.079L246.719 291.086L247.297 290.549C248.375 289.546 248.483 289.695 249.329 293.326C250.075 296.526 250.116 296.924 249.715 297.077C249.396 297.198 243.39 295.892 243.037 295.625C242.669 295.347 242.764 295.016 243.388 294.397L243.97 293.82L240.9 290.769C239.211 289.092 237.829 287.594 237.829 287.441C237.829 287.033 239.897 285.071 240.327 285.071C240.558 285.071 241.82 286.195 243.707 288.079ZM223.381 286.048C222.32 286.85 222.161 287.332 222.161 289.726V291.838L223.497 291.844C224.306 291.848 225.015 291.954 225.294 292.112C225.622 292.298 226.399 292.375 227.976 292.38C229.45 292.384 230.272 292.46 230.419 292.606C230.565 292.751 230.64 293.528 230.64 294.892V296.958H232.723C234.097 296.958 234.881 297.033 235.027 297.178C235.173 297.322 235.248 298.099 235.248 299.458V301.519L237.414 301.57L239.58 301.622L239.632 303.77L239.684 305.919H241.761C243.131 305.919 243.914 305.994 244.06 306.139C244.206 306.284 244.281 307.061 244.281 308.425V310.491H246.364C247.738 310.491 248.522 310.566 248.668 310.711C248.813 310.854 248.889 311.613 248.889 312.905V314.88H250.107H251.325L251.252 312.823C251.193 311.195 251.092 310.575 250.764 309.851C250.425 309.101 248.287 306.885 238.883 297.534C232.575 291.263 227.165 285.971 226.861 285.775C226.025 285.234 224.275 285.371 223.381 286.048ZM242.395 290.424C244.171 292.189 245.387 293.538 245.387 293.745C245.387 293.938 245.249 294.246 245.081 294.43C244.912 294.615 244.809 294.796 244.85 294.833C244.976 294.944 248.417 295.659 248.488 295.589C248.604 295.474 247.743 292.021 247.599 292.021C247.522 292.021 247.357 292.144 247.23 292.295C247.104 292.446 246.865 292.569 246.699 292.569C246.533 292.569 245.03 291.212 243.36 289.553L240.324 286.536L239.863 286.994L239.402 287.451L242.395 290.424ZM218.623 293.438C218.47 293.614 218.292 293.907 218.227 294.089C218.083 294.49 218.529 295.407 218.943 295.565C219.107 295.627 220.208 295.678 221.389 295.678H223.536L235.153 307.195L246.769 318.712L250.883 318.729C255.205 318.747 255.404 318.713 255.705 317.905C255.905 317.368 255.58 316.609 255.047 316.368C254.756 316.237 253.346 316.16 251.23 316.16H247.874L236.262 304.639L224.65 293.118H221.775C219.265 293.118 218.865 293.158 218.623 293.438ZM227.138 293.718C227.138 293.746 227.635 294.258 228.244 294.855L229.35 295.941V294.804V293.666H228.244C227.635 293.666 227.138 293.69 227.138 293.718ZM231.746 298.29C231.746 298.318 232.244 298.83 232.852 299.427L233.958 300.513V299.376V298.238H232.852C232.244 298.238 231.746 298.262 231.746 298.29ZM237.281 303.823L238.474 305.019L238.531 304.073C238.614 302.684 238.564 302.627 237.241 302.627H236.089L237.281 303.823ZM240.779 307.251C240.779 307.279 241.276 307.791 241.885 308.388L242.991 309.474V308.337V307.199H241.885C241.276 307.199 240.779 307.223 240.779 307.251ZM245.387 311.823C245.387 311.851 245.885 312.363 246.493 312.96L247.599 314.046V312.909V311.771H246.493C245.885 311.771 245.387 311.795 245.387 311.823Z" fill="#39071F"/>
<path fill-rule="evenodd" clip-rule="evenodd" d="M248.352 352.671C249.932 353.045 251.363 353.404 251.532 353.468C251.978 353.638 251.908 354.2 251.378 354.694C251.124 354.93 250.917 355.213 250.917 355.322C250.917 355.432 252.286 356.877 253.958 358.534C255.631 360.192 257 361.617 257 361.703C257 361.964 254.746 364.203 254.483 364.203C254.348 364.203 252.861 362.846 251.18 361.186C249.498 359.526 248.061 358.169 247.985 358.169C247.909 358.169 247.653 358.374 247.415 358.626C246.877 359.193 246.356 359.212 246.125 358.671C246.028 358.445 245.649 356.96 245.283 355.371C244.755 353.076 244.664 352.428 244.841 352.217C245.118 351.885 244.925 351.86 248.352 352.671ZM246.435 354.74C246.579 355.368 246.781 356.2 246.884 356.588L247.071 357.294L247.485 356.909C247.713 356.696 247.976 356.523 248.07 356.523C248.163 356.523 249.628 357.898 251.324 359.578L254.407 362.633L254.878 362.194L255.348 361.755L252.303 358.715C250.628 357.043 249.258 355.563 249.258 355.425C249.258 355.287 249.431 354.992 249.642 354.769L250.026 354.364L248.49 353.994C246.053 353.408 246.124 353.382 246.435 354.74ZM226.953 356.377C227.441 356.529 230.435 359.382 239.18 368.026C245.55 374.322 250.99 379.803 251.269 380.205C252.193 381.539 252.442 382.428 252.535 384.731L252.621 386.88L253.566 386.881C255.676 386.883 256.804 387.661 256.955 389.219C257.06 390.309 256.681 391.133 255.839 391.642C255.296 391.971 254.887 391.999 250.736 392L246.223 392.001L234.605 380.48L222.986 368.958H221.065C219.527 368.958 218.993 368.886 218.39 368.596C217.46 368.15 216.999 367.411 217 366.37C217.001 364.776 218.086 363.838 219.928 363.838H220.841L220.902 361.491C220.96 359.247 220.987 359.104 221.52 358.25C222.333 356.947 223.522 356.269 225.088 356.217C225.759 356.194 226.599 356.266 226.953 356.377ZM243.707 360.079L246.719 363.086L247.297 362.549C248.375 361.546 248.483 361.695 249.329 365.326C250.075 368.526 250.116 368.924 249.715 369.077C249.396 369.198 243.39 367.892 243.037 367.625C242.669 367.347 242.764 367.016 243.388 366.397L243.97 365.82L240.9 362.769C239.211 361.092 237.829 359.594 237.829 359.441C237.829 359.033 239.897 357.071 240.327 357.071C240.558 357.071 241.82 358.195 243.707 360.079ZM223.381 358.048C222.32 358.85 222.161 359.332 222.161 361.726V363.838L223.497 363.844C224.306 363.848 225.015 363.954 225.294 364.112C225.622 364.298 226.399 364.375 227.976 364.38C229.45 364.384 230.272 364.46 230.419 364.606C230.565 364.751 230.64 365.528 230.64 366.892V368.958H232.723C234.097 368.958 234.881 369.033 235.027 369.178C235.173 369.322 235.248 370.099 235.248 371.458V373.519L237.414 373.57L239.58 373.622L239.632 375.77L239.684 377.919H241.761C243.131 377.919 243.914 377.994 244.06 378.139C244.206 378.284 244.281 379.061 244.281 380.425V382.491H246.364C247.738 382.491 248.522 382.566 248.668 382.711C248.813 382.854 248.889 383.613 248.889 384.905V386.88H250.107H251.325L251.252 384.823C251.193 383.195 251.092 382.575 250.764 381.851C250.425 381.101 248.287 378.885 238.883 369.534C232.575 363.263 227.165 357.971 226.861 357.775C226.025 357.234 224.275 357.371 223.381 358.048ZM242.395 362.424C244.171 364.189 245.387 365.538 245.387 365.745C245.387 365.938 245.249 366.246 245.081 366.43C244.912 366.615 244.809 366.796 244.85 366.833C244.976 366.944 248.417 367.659 248.488 367.589C248.604 367.474 247.743 364.021 247.599 364.021C247.522 364.021 247.357 364.144 247.23 364.295C247.104 364.446 246.865 364.569 246.699 364.569C246.533 364.569 245.03 363.212 243.36 361.553L240.324 358.536L239.863 358.994L239.402 359.451L242.395 362.424ZM218.623 365.438C218.47 365.614 218.292 365.907 218.227 366.089C218.083 366.49 218.529 367.407 218.943 367.565C219.107 367.627 220.208 367.678 221.389 367.678H223.536L235.153 379.195L246.769 390.712L250.883 390.729C255.205 390.747 255.404 390.713 255.705 389.905C255.905 389.368 255.58 388.609 255.047 388.368C254.756 388.237 253.346 388.16 251.23 388.16H247.874L236.262 376.639L224.65 365.118H221.775C219.265 365.118 218.865 365.158 218.623 365.438ZM227.138 365.718C227.138 365.746 227.635 366.258 228.244 366.855L229.35 367.941V366.804V365.666H228.244C227.635 365.666 227.138 365.69 227.138 365.718ZM231.746 370.29C231.746 370.318 232.244 370.83 232.852 371.427L233.958 372.513V371.376V370.238H232.852C232.244 370.238 231.746 370.262 231.746 370.29ZM237.281 375.823L238.474 377.019L238.531 376.073C238.614 374.684 238.564 374.627 237.241 374.627H236.089L237.281 375.823ZM240.779 379.251C240.779 379.279 241.276 379.791 241.885 380.388L242.991 381.474V380.337V379.199H241.885C241.276 379.199 240.779 379.223 240.779 379.251ZM245.387 383.823C245.387 383.851 245.885 384.363 246.493 384.96L247.599 386.046V384.909V383.771H246.493C245.885 383.771 245.387 383.795 245.387 383.823Z" fill="#39071F"/>
<path d="M85.466 476.098C85.2607 476.098 85.0927 476.047 84.962 475.944C84.8407 475.841 84.738 475.683 84.654 475.468L81.644 466.886C81.56 466.643 81.574 466.443 81.686 466.284C81.8073 466.116 82.0033 466.032 82.274 466.032C82.4793 466.032 82.638 466.079 82.75 466.172C82.8713 466.265 82.9647 466.415 83.03 466.62L85.76 474.656H85.242L88.042 466.648C88.126 466.443 88.224 466.289 88.336 466.186C88.448 466.083 88.5973 466.032 88.784 466.032C88.9707 466.032 89.1153 466.083 89.218 466.186C89.33 466.289 89.428 466.447 89.512 466.662L92.256 474.656H91.794L94.552 466.62C94.6173 466.424 94.706 466.279 94.818 466.186C94.9393 466.083 95.098 466.032 95.294 466.032C95.5367 466.032 95.714 466.116 95.826 466.284C95.9473 466.443 95.9613 466.643 95.868 466.886L92.844 475.482C92.76 475.687 92.6573 475.841 92.536 475.944C92.4147 476.047 92.2513 476.098 92.046 476.098C91.8313 476.098 91.6633 476.047 91.542 475.944C91.4207 475.841 91.3227 475.683 91.248 475.468L88.602 467.894H88.91L86.236 475.482C86.1613 475.687 86.0633 475.841 85.942 475.944C85.83 476.047 85.6713 476.098 85.466 476.098ZM101.843 476.126C100.845 476.126 99.9908 475.921 99.2815 475.51C98.5722 475.099 98.0262 474.516 97.6435 473.76C97.2702 472.995 97.0835 472.094 97.0835 471.058C97.0835 470.283 97.1908 469.588 97.4055 468.972C97.6202 468.347 97.9282 467.815 98.3295 467.376C98.7402 466.928 99.2395 466.587 99.8275 466.354C100.425 466.121 101.097 466.004 101.843 466.004C102.394 466.004 102.921 466.079 103.425 466.228C103.939 466.377 104.382 466.592 104.755 466.872C104.914 466.975 105.017 467.101 105.063 467.25C105.119 467.39 105.129 467.525 105.091 467.656C105.063 467.787 105.003 467.899 104.909 467.992C104.816 468.076 104.695 468.123 104.545 468.132C104.405 468.141 104.251 468.09 104.083 467.978C103.775 467.745 103.435 467.572 103.061 467.46C102.688 467.348 102.296 467.292 101.885 467.292C101.176 467.292 100.579 467.441 100.093 467.74C99.6082 468.029 99.2395 468.454 98.9875 469.014C98.7355 469.574 98.6095 470.255 98.6095 471.058C98.6095 471.861 98.7355 472.547 98.9875 473.116C99.2395 473.676 99.6082 474.105 100.093 474.404C100.579 474.693 101.176 474.838 101.885 474.838C102.296 474.838 102.688 474.782 103.061 474.67C103.444 474.549 103.803 474.371 104.139 474.138C104.307 474.035 104.457 473.989 104.587 473.998C104.727 474.007 104.844 474.054 104.937 474.138C105.031 474.222 105.091 474.329 105.119 474.46C105.157 474.581 105.152 474.712 105.105 474.852C105.068 474.983 104.979 475.095 104.839 475.188C104.457 475.496 104.004 475.729 103.481 475.888C102.959 476.047 102.413 476.126 101.843 476.126Z" fill="#39071F"/>
<path fill-rule="evenodd" clip-rule="evenodd" d="M93.4344 444.024C93.3192 444.067 93.2032 444.185 93.1601 444.303C93.1291 444.387 93.126 445.371 93.1315 453.532L93.1376 462.666L93.1849 462.759C93.3388 463.062 93.7582 463.084 93.9513 462.798L94.0194 462.697L94.0255 453.547C94.0322 443.543 94.0419 444.298 93.9059 444.148C93.7881 444.017 93.59 443.965 93.4344 444.024ZM86.0723 445.575C85.7255 445.606 85.4175 445.756 85.1565 446.022C84.674 446.513 84.5726 447.269 84.9069 447.884C85.0755 448.194 85.4214 448.484 85.7558 448.597C85.9821 448.674 86.3942 448.683 86.6277 448.617C87.2358 448.446 87.6577 447.948 87.7506 447.293C87.8159 446.832 87.6288 446.324 87.268 445.98C86.9407 445.669 86.54 445.533 86.0723 445.575ZM100.791 445.573C100.436 445.606 100.138 445.752 99.8735 446.023C99.6695 446.232 99.5799 446.379 99.4883 446.652C99.4338 446.815 99.426 446.873 99.426 447.117C99.426 447.36 99.4339 447.42 99.488 447.582C99.6594 448.096 100.042 448.471 100.542 448.615C100.755 448.676 101.108 448.682 101.315 448.627C101.754 448.512 102.121 448.205 102.317 447.79C102.433 447.545 102.47 447.35 102.458 447.047C102.447 446.761 102.389 446.551 102.256 446.32C102.16 446.152 101.899 445.884 101.736 445.785C101.462 445.618 101.123 445.543 100.791 445.573ZM85.8462 449.096C85.2 449.159 84.6952 449.351 84.4219 449.636C84.2789 449.786 84.2662 449.809 83.9597 450.499C83.7864 450.889 83.6018 451.302 83.5495 451.417C83.4971 451.532 83.3657 451.825 83.2573 452.068C83.149 452.311 82.9687 452.713 82.8567 452.962C82.6261 453.476 82.6031 453.579 82.6685 453.81C82.7202 453.993 82.907 454.189 83.0848 454.248C83.3478 454.334 83.575 454.277 83.7662 454.078C83.8806 453.959 83.9146 453.895 84.1945 453.264C84.6572 452.221 84.7005 452.131 84.7116 452.184C84.717 452.209 84.7159 452.811 84.709 453.52C84.6978 454.686 84.6911 454.864 84.6391 455.368C84.6074 455.675 84.5458 456.287 84.5022 456.728C84.4096 457.664 84.3518 458.245 84.2749 459.017C84.2443 459.324 84.1943 459.826 84.1638 460.133C84.1042 460.732 84.1078 460.829 84.1973 461.019C84.2619 461.157 84.4103 461.303 84.5575 461.374C84.7249 461.455 85.0114 461.46 85.1719 461.384C85.4056 461.273 85.5728 461.047 85.6169 460.782C85.6295 460.706 85.7685 459.436 85.9257 457.96C86.0829 456.483 86.2179 455.249 86.2257 455.217C86.2384 455.165 86.2406 455.167 86.2476 455.24C86.3333 456.138 86.852 460.817 86.8753 460.901C86.9663 461.233 87.313 461.472 87.6562 461.44C88.01 461.407 88.2949 461.13 88.3437 460.772C88.3518 460.713 88.3331 460.422 88.3003 460.098C88.2685 459.785 88.2021 459.121 88.1527 458.622C88.1032 458.124 88.0368 457.454 88.0051 457.135C87.9734 456.815 87.9071 456.146 87.8578 455.647L87.7682 454.741L87.7683 453.439L87.7685 452.137L88.1852 453.065C88.6296 454.054 88.6577 454.101 88.8645 454.213C89.0197 454.298 89.2874 454.302 89.4439 454.223C89.5882 454.15 89.7083 454.023 89.7744 453.875C89.8213 453.769 89.8288 453.723 89.8213 453.583C89.813 453.424 89.7945 453.375 89.4423 452.591C89.2387 452.137 88.9832 451.567 88.8746 451.324C88.1954 449.805 88.1804 449.774 88.0682 449.656C87.7979 449.371 87.2901 449.173 86.6564 449.105C86.4587 449.083 86.0246 449.079 85.8462 449.096ZM100.452 449.105C99.8373 449.182 99.4027 449.361 99.129 449.649C98.9851 449.8 98.957 449.847 98.8184 450.163C98.7346 450.354 98.3743 451.159 98.0178 451.951C97.3744 453.381 97.3693 453.394 97.3595 453.571C97.3509 453.725 97.3573 453.767 97.4053 453.875C97.6027 454.318 98.1535 454.423 98.4833 454.081C98.5667 453.994 98.625 453.887 98.7882 453.52C98.8992 453.271 99.0705 452.889 99.1691 452.672C99.2676 452.455 99.3616 452.245 99.3781 452.207C99.4048 452.145 99.4082 452.172 99.4098 452.46L99.4117 452.782L99.0352 453.657C98.8281 454.138 98.5125 454.87 98.3338 455.284C98.1551 455.698 97.9976 456.083 97.9838 456.14C97.9198 456.401 98.0611 456.729 98.2764 456.818C98.3101 456.832 98.5244 456.874 98.7525 456.912C98.9807 456.949 99.1718 456.985 99.1772 456.99C99.1826 456.996 99.1718 457.151 99.1531 457.335C99.1344 457.519 99.0883 457.978 99.0508 458.355C99.0132 458.732 98.9575 459.291 98.927 459.598C98.8964 459.905 98.8598 460.276 98.8456 460.421C98.8314 460.567 98.8267 460.734 98.8352 460.792C98.8709 461.037 99.0212 461.243 99.2482 461.358C99.3812 461.425 99.4213 461.434 99.5812 461.434C99.7411 461.434 99.7813 461.425 99.9142 461.358C100.005 461.312 100.098 461.243 100.145 461.185C100.315 460.982 100.304 461.044 100.511 459.115C100.616 458.141 100.707 457.321 100.712 457.293C100.723 457.245 100.735 457.242 100.949 457.242C101.073 457.242 101.175 457.249 101.175 457.258C101.176 457.411 101.57 460.861 101.596 460.941C101.644 461.091 101.822 461.288 101.985 461.37C102.095 461.425 102.141 461.434 102.306 461.434C102.47 461.434 102.516 461.425 102.626 461.37C102.787 461.289 102.959 461.099 103.012 460.945C103.061 460.803 103.063 460.596 103.018 460.173C102.986 459.869 102.898 458.981 102.765 457.629C102.732 457.287 102.711 457.001 102.719 456.993C102.727 456.984 102.909 456.948 103.124 456.913C103.623 456.83 103.62 456.831 103.725 456.738C103.86 456.62 103.918 456.46 103.906 456.242C103.896 456.072 103.88 456.03 103.477 455.101C103.247 454.57 102.925 453.825 102.761 453.444L102.464 452.752V452.446C102.464 452.27 102.472 452.149 102.484 452.162C102.494 452.174 102.582 452.362 102.679 452.579C103.316 454.011 103.293 453.966 103.421 454.091C103.832 454.492 104.493 454.23 104.538 453.648C104.55 453.495 104.516 453.386 104.323 452.962C104.232 452.764 103.982 452.208 103.347 450.791C102.925 449.851 102.889 449.778 102.8 449.673C102.598 449.437 102.162 449.238 101.627 449.138C101.397 449.095 100.691 449.075 100.452 449.105Z" fill="#39071F"/>
<path fill-rule="evenodd" clip-rule="evenodd" d="M151.222 468.026C150.758 468.118 150.269 468.38 149.97 468.697C149.75 468.929 149.547 469.27 149.44 469.588L149.344 469.872V477.003V484.134L149.44 484.42C149.55 484.745 149.805 485.156 150.032 485.372C150.264 485.592 150.603 485.796 150.919 485.904L151.203 486H158.304H165.406L165.691 485.903C166.015 485.793 166.424 485.537 166.639 485.309C166.859 485.076 167.062 484.735 167.169 484.418L167.265 484.134V477.003V469.872L167.169 469.588C167.062 469.27 166.859 468.929 166.639 468.697C166.424 468.469 166.015 468.213 165.691 468.103L165.406 468.006L158.392 468C154.492 467.998 151.309 468.009 151.222 468.026ZM165.197 469.083C165.72 469.18 166.095 469.557 166.192 470.082C166.246 470.375 166.246 483.631 166.192 483.923C166.141 484.202 166.024 484.423 165.834 484.599C165.633 484.785 165.457 484.875 165.197 484.923C164.906 484.977 151.703 484.977 151.412 484.923C150.888 484.826 150.513 484.449 150.417 483.923C150.363 483.631 150.363 470.375 150.417 470.082C150.468 469.804 150.585 469.582 150.775 469.407C150.971 469.225 151.115 469.148 151.36 469.093C151.623 469.035 164.885 469.025 165.197 469.083ZM155.366 470.046C154.915 470.156 154.44 470.487 154.178 470.876C153.727 471.544 153.723 472.456 154.17 473.127C154.726 473.962 155.798 474.259 156.709 473.83C157.163 473.616 157.564 473.175 157.741 472.696C157.841 472.423 157.878 471.876 157.815 471.585C157.657 470.856 157.055 470.236 156.324 470.049C156.075 469.985 155.623 469.984 155.366 470.046ZM156.202 470.755C156.48 470.837 156.716 471.002 156.887 471.236C157.081 471.501 157.16 471.766 157.139 472.092C157.082 473.003 156.14 473.574 155.306 473.204C155.084 473.105 154.781 472.805 154.666 472.57C154.581 472.395 154.57 472.332 154.57 472.02C154.569 471.713 154.581 471.643 154.662 471.47C154.941 470.872 155.584 470.574 156.202 470.755ZM161.86 471.511C161.801 471.529 161.712 471.584 161.663 471.633C161.522 471.775 160.159 474.272 160.14 474.424C160.118 474.604 160.246 474.846 160.408 474.931C160.521 474.991 160.647 474.996 162.042 474.996H163.555L163.674 474.916C163.836 474.807 163.923 474.629 163.905 474.444C163.894 474.336 163.716 473.983 163.232 473.106C162.446 471.681 162.419 471.637 162.305 471.569C162.182 471.497 161.992 471.472 161.86 471.511ZM162.253 473.526L162.466 473.922L162.244 473.932C162.122 473.938 161.921 473.938 161.798 473.932L161.573 473.922L161.789 473.526C161.907 473.308 162.012 473.13 162.022 473.13C162.032 473.131 162.135 473.309 162.253 473.526ZM153.979 473.712C153.621 473.844 153.196 474.253 153.012 474.643L152.921 474.837L152.91 477.091C152.903 478.656 152.911 479.385 152.938 479.477C153.019 479.756 153.292 479.962 153.649 480.015C153.74 480.028 153.816 480.057 153.816 480.079C153.816 480.101 153.816 480.814 153.815 481.662C153.814 482.696 153.827 483.254 153.853 483.352C154.02 483.974 155.125 484.099 155.495 483.538L155.586 483.399L155.596 482.066L155.606 480.732L155.842 480.743L156.077 480.753L156.086 481.475C156.111 483.619 156.102 483.454 156.207 483.614C156.351 483.832 156.624 483.953 156.968 483.952C157.262 483.951 157.415 483.901 157.599 483.744C157.849 483.533 157.847 483.553 157.848 481.698L157.848 480.037L158.029 479.998C158.277 479.945 158.461 479.834 158.576 479.667L158.673 479.527V477.164V474.802L158.567 474.591C158.38 474.215 157.858 473.758 157.528 473.68C157.453 473.662 157.401 473.686 157.265 473.8C156.894 474.111 156.373 474.29 155.837 474.291C155.331 474.292 154.812 474.112 154.423 473.801C154.229 473.646 154.183 473.637 153.979 473.712ZM154.331 474.591C154.773 474.859 155.273 474.994 155.821 474.995C156.393 474.996 156.85 474.88 157.316 474.614L157.567 474.472L157.72 474.626C158.005 474.912 157.989 474.761 157.989 477.154V479.284L157.91 479.305C157.866 479.316 157.687 479.326 157.512 479.326L157.192 479.327L157.167 479.688C157.152 479.886 157.143 480.766 157.146 481.642L157.151 483.236H156.973H156.796V481.633V480.031H155.849H154.902V481.596C154.902 483.151 154.902 483.161 154.829 483.184C154.789 483.197 154.702 483.197 154.636 483.185L154.515 483.162L154.519 481.224C154.521 480.158 154.516 479.28 154.509 479.272C154.502 479.265 154.323 479.272 154.112 479.287C153.898 479.303 153.7 479.302 153.666 479.285C153.609 479.256 153.605 479.119 153.605 477.159C153.605 475.415 153.613 475.043 153.655 474.942C153.714 474.802 154.014 474.467 154.081 474.467C154.107 474.467 154.219 474.523 154.331 474.591ZM160.52 479.045C160.282 479.101 160.099 479.381 160.139 479.628C160.158 479.742 161.517 482.239 161.631 482.368C161.724 482.473 161.867 482.531 162.032 482.531C162.329 482.531 162.356 482.495 163.135 481.091C163.526 480.387 163.863 479.753 163.884 479.682C163.965 479.412 163.797 479.126 163.512 479.049C163.349 479.004 160.705 479.001 160.52 479.045ZM162.443 480.116C162.443 480.178 162.045 480.878 162.015 480.868C161.98 480.856 161.57 480.127 161.585 480.102C161.603 480.069 162.443 480.084 162.443 480.116Z" fill="#39071F"/>
<path fill-rule="evenodd" clip-rule="evenodd" d="M86.5066 342.026C86.0418 342.118 85.5533 342.38 85.2538 342.697C85.034 342.929 84.8311 343.27 84.724 343.588L84.6279 343.872V351.003V358.134L84.7246 358.42C84.8343 358.745 85.0895 359.156 85.3162 359.372C85.5478 359.592 85.8875 359.796 86.2034 359.904L86.4867 360H93.5885H100.69L100.976 359.903C101.299 359.793 101.708 359.537 101.923 359.309C102.143 359.076 102.346 358.735 102.453 358.418L102.549 358.134V351.003V343.872L102.453 343.588C102.346 343.27 102.143 342.929 101.923 342.697C101.708 342.469 101.299 342.213 100.976 342.103L100.69 342.006L93.6762 342C89.7762 341.998 86.5931 342.009 86.5066 342.026ZM100.481 343.083C101.005 343.18 101.38 343.557 101.476 344.082C101.53 344.375 101.53 357.631 101.476 357.923C101.425 358.202 101.308 358.423 101.118 358.599C100.917 358.785 100.741 358.875 100.481 358.923C100.19 358.977 86.9874 358.977 86.6959 358.923C86.1726 358.826 85.7975 358.449 85.7007 357.923C85.6469 357.631 85.6469 344.375 85.7007 344.082C85.7521 343.804 85.8694 343.582 86.0587 343.407C86.2554 343.225 86.3992 343.148 86.6445 343.093C86.9069 343.035 100.169 343.025 100.481 343.083ZM90.6502 344.046C90.199 344.156 89.7246 344.487 89.4624 344.876C89.0109 345.544 89.0077 346.456 89.4544 347.127C90.0098 347.962 91.082 348.259 91.9928 347.83C92.4474 347.616 92.8486 347.175 93.0248 346.696C93.1254 346.423 93.162 345.876 93.0992 345.585C92.9413 344.856 92.3395 344.236 91.6084 344.049C91.3592 343.985 90.9074 343.984 90.6502 344.046ZM91.4867 344.755C91.7643 344.837 92.0003 345.002 92.1712 345.236C92.3655 345.501 92.4437 345.766 92.4232 346.092C92.3659 347.003 91.4246 347.574 90.5906 347.204C90.3679 347.105 90.0652 346.805 89.9505 346.57C89.8651 346.395 89.8542 346.332 89.8538 346.02C89.8535 345.713 89.8652 345.643 89.9459 345.47C90.2252 344.872 90.868 344.574 91.4867 344.755ZM97.1446 345.511C97.0847 345.529 96.996 345.584 96.9474 345.633C96.8057 345.775 95.4431 348.272 95.4242 348.424C95.4019 348.604 95.5298 348.846 95.6922 348.931C95.805 348.991 95.9311 348.996 97.3266 348.996H98.8388L98.958 348.916C99.1203 348.807 99.2075 348.629 99.1889 348.444C99.178 348.336 99.0006 347.983 98.5164 347.106C97.7298 345.681 97.7033 345.637 97.5887 345.569C97.4663 345.497 97.2758 345.472 97.1446 345.511ZM97.5368 347.526L97.75 347.922L97.528 347.932C97.4059 347.938 97.2052 347.938 97.0819 347.932L96.8577 347.922L97.0731 347.526C97.1916 347.308 97.2964 347.13 97.3061 347.13C97.3157 347.131 97.4195 347.309 97.5368 347.526ZM89.2627 347.712C88.9051 347.844 88.48 348.253 88.2964 348.643L88.2052 348.837L88.1945 351.091C88.187 352.656 88.1956 353.385 88.2223 353.477C88.3035 353.756 88.5759 353.962 88.9329 354.015C89.0245 354.028 89.0998 354.057 89.1002 354.079C89.1006 354.101 89.1002 354.814 89.0995 355.662C89.0986 356.696 89.1111 357.254 89.1374 357.352C89.3042 357.974 90.409 358.099 90.7791 357.538L90.8705 357.399L90.8805 356.066L90.8905 354.732L91.126 354.743L91.3615 354.753L91.3701 355.475C91.3955 357.619 91.3862 357.454 91.4913 357.614C91.6352 357.832 91.9085 357.953 92.2519 357.952C92.5464 357.951 92.6987 357.901 92.8833 357.744C93.1334 357.533 93.131 357.553 93.1318 355.698L93.1326 354.037L93.3134 353.998C93.5616 353.945 93.7449 353.834 93.8598 353.667L93.9568 353.527V351.164V348.802L93.8516 348.591C93.6646 348.215 93.1418 347.758 92.8118 347.68C92.7372 347.662 92.6853 347.686 92.5487 347.8C92.1782 348.111 91.6569 348.29 91.1211 348.291C90.615 348.292 90.0961 348.112 89.7068 347.801C89.5131 347.646 89.4676 347.637 89.2627 347.712ZM89.615 348.591C90.057 348.859 90.557 348.994 91.105 348.995C91.6773 348.996 92.1339 348.88 92.6002 348.614L92.8508 348.472L93.0041 348.626C93.289 348.912 93.2729 348.761 93.2729 351.154V353.284L93.194 353.305C93.1506 353.316 92.9714 353.326 92.7957 353.326L92.4763 353.327L92.4507 353.688C92.4366 353.886 92.4273 354.766 92.4299 355.642L92.4347 357.236H92.2576H92.0805V355.633V354.031H91.1336H90.1867V355.596C90.1867 357.151 90.1862 357.161 90.1135 357.184C90.0732 357.197 89.9861 357.197 89.9199 357.185L89.7995 357.162L89.803 355.224C89.805 354.158 89.8006 353.28 89.7933 353.272C89.7861 353.265 89.6073 353.272 89.396 353.287C89.1823 353.303 88.9845 353.302 88.9504 353.285C88.893 353.256 88.889 353.119 88.889 351.159C88.889 349.415 88.8975 349.043 88.9395 348.942C88.9981 348.802 89.2979 348.467 89.3656 348.467C89.3909 348.467 89.5031 348.523 89.615 348.591ZM95.8039 353.045C95.566 353.101 95.3834 353.381 95.4232 353.628C95.4418 353.742 96.801 356.239 96.9149 356.368C97.0082 356.473 97.1514 356.531 97.3166 356.531C97.6129 356.531 97.6407 356.495 98.4196 355.091C98.8101 354.387 99.147 353.753 99.1681 353.682C99.2487 353.412 99.0813 353.126 98.7966 353.049C98.6334 353.004 95.9897 353.001 95.8039 353.045ZM97.7269 354.116C97.7269 354.178 97.3287 354.878 97.2992 354.868C97.264 354.856 96.8547 354.127 96.8689 354.102C96.8867 354.069 97.7269 354.084 97.7269 354.116Z" fill="#39071F"/>
<path d="M312.825 127.133C312.548 127.133 312.321 127.069 312.143 126.941C311.975 126.812 311.866 126.639 311.817 126.422C311.777 126.205 311.822 125.962 311.95 125.696L315.745 117.38C315.903 117.044 316.091 116.802 316.308 116.654C316.525 116.496 316.777 116.417 317.064 116.417C317.351 116.417 317.603 116.496 317.82 116.654C318.037 116.802 318.22 117.044 318.368 117.38L322.193 125.696C322.321 125.962 322.366 126.209 322.326 126.437C322.296 126.654 322.198 126.827 322.03 126.956C321.862 127.074 321.644 127.133 321.377 127.133C321.041 127.133 320.78 127.054 320.592 126.896C320.414 126.738 320.256 126.491 320.117 126.155L319.228 124.095L320.147 124.732H313.966L314.885 124.095L314.011 126.155C313.862 126.501 313.704 126.753 313.536 126.911C313.378 127.059 313.141 127.133 312.825 127.133ZM317.034 118.996L315.137 123.517L314.737 122.939H319.376L318.976 123.517L317.064 118.996H317.034ZM324.963 127C324.647 127 324.405 126.916 324.237 126.748C324.069 126.58 323.985 126.348 323.985 126.051C323.985 125.745 324.069 125.513 324.237 125.355C324.405 125.197 324.647 125.118 324.963 125.118H326.461V118.432H327.543L325.379 119.752C325.151 119.89 324.939 119.944 324.741 119.915C324.553 119.885 324.39 119.801 324.252 119.663C324.114 119.524 324.02 119.361 323.97 119.174C323.931 118.976 323.951 118.783 324.03 118.596C324.109 118.398 324.257 118.23 324.474 118.092L326.535 116.846C326.742 116.718 326.95 116.614 327.157 116.535C327.375 116.456 327.587 116.417 327.795 116.417C328.091 116.417 328.323 116.496 328.491 116.654C328.669 116.802 328.758 117.034 328.758 117.35V125.118H330.107C330.413 125.118 330.65 125.197 330.818 125.355C330.986 125.513 331.07 125.745 331.07 126.051C331.07 126.358 330.986 126.595 330.818 126.763C330.65 126.921 330.413 127 330.107 127H324.963Z" fill="#FDFDFE"/>
<path d="M425.825 201.133C425.548 201.133 425.321 201.069 425.143 200.941C424.975 200.812 424.866 200.639 424.817 200.422C424.777 200.205 424.822 199.962 424.95 199.696L428.745 191.38C428.903 191.044 429.091 190.802 429.308 190.654C429.525 190.496 429.777 190.417 430.064 190.417C430.351 190.417 430.603 190.496 430.82 190.654C431.037 190.802 431.22 191.044 431.368 191.38L435.193 199.696C435.321 199.962 435.366 200.209 435.326 200.437C435.296 200.654 435.198 200.827 435.03 200.956C434.862 201.074 434.644 201.133 434.377 201.133C434.041 201.133 433.78 201.054 433.592 200.896C433.414 200.738 433.256 200.491 433.117 200.155L432.228 198.095L433.147 198.732H426.966L427.885 198.095L427.011 200.155C426.862 200.501 426.704 200.753 426.536 200.911C426.378 201.059 426.141 201.133 425.825 201.133ZM430.034 192.996L428.137 197.517L427.737 196.939H432.376L431.976 197.517L430.064 192.996H430.034ZM437.682 201C437.316 201 437.044 200.916 436.867 200.748C436.699 200.57 436.615 200.313 436.615 199.977C436.615 199.76 436.669 199.557 436.778 199.37C436.886 199.182 437.035 198.989 437.222 198.791L440.009 195.857C440.424 195.412 440.72 195.017 440.898 194.671C441.086 194.325 441.18 193.979 441.18 193.633C441.18 193.198 441.037 192.867 440.75 192.64C440.473 192.413 440.068 192.299 439.535 192.299C439.248 192.299 438.952 192.344 438.645 192.432C438.349 192.512 438.038 192.645 437.711 192.833C437.494 192.951 437.292 192.996 437.104 192.966C436.926 192.927 436.773 192.843 436.644 192.714C436.516 192.576 436.432 192.413 436.392 192.225C436.353 192.037 436.373 191.849 436.452 191.662C436.531 191.474 436.679 191.316 436.896 191.187C437.331 190.921 437.805 190.723 438.319 190.594C438.833 190.456 439.342 190.387 439.846 190.387C440.627 190.387 441.284 190.506 441.817 190.743C442.351 190.97 442.756 191.306 443.033 191.751C443.31 192.195 443.448 192.739 443.448 193.381C443.448 193.796 443.384 194.201 443.255 194.597C443.127 194.992 442.924 195.392 442.647 195.797C442.381 196.193 442.025 196.617 441.58 197.072L438.986 199.71V199.118H443.003C443.319 199.118 443.557 199.197 443.715 199.355C443.883 199.513 443.967 199.745 443.967 200.051C443.967 200.358 443.883 200.595 443.715 200.763C443.557 200.921 443.319 201 443.003 201H437.682Z" fill="#FDFDFE"/>
<path d="M546.825 133.133C546.548 133.133 546.321 133.069 546.143 132.941C545.975 132.812 545.866 132.639 545.817 132.422C545.777 132.205 545.822 131.962 545.95 131.696L549.745 123.38C549.903 123.044 550.091 122.802 550.308 122.654C550.525 122.496 550.777 122.417 551.064 122.417C551.351 122.417 551.603 122.496 551.82 122.654C552.037 122.802 552.22 123.044 552.368 123.38L556.193 131.696C556.321 131.962 556.366 132.209 556.326 132.437C556.296 132.654 556.198 132.827 556.03 132.956C555.862 133.074 555.644 133.133 555.377 133.133C555.041 133.133 554.78 133.054 554.592 132.896C554.414 132.738 554.256 132.491 554.117 132.155L553.228 130.095L554.147 130.732H547.966L548.885 130.095L548.011 132.155C547.862 132.501 547.704 132.753 547.536 132.911C547.378 133.059 547.141 133.133 546.825 133.133ZM551.034 124.996L549.137 129.517L548.737 128.939H553.376L552.976 129.517L551.064 124.996H551.034ZM560.831 133.163C560.307 133.163 559.774 133.104 559.23 132.985C558.697 132.857 558.232 132.679 557.837 132.452C557.58 132.313 557.402 132.15 557.303 131.962C557.214 131.765 557.18 131.572 557.2 131.384C557.229 131.197 557.308 131.034 557.437 130.895C557.565 130.747 557.728 130.653 557.926 130.614C558.133 130.574 558.361 130.614 558.608 130.732C558.993 130.92 559.359 131.053 559.705 131.132C560.05 131.211 560.396 131.251 560.742 131.251C561.137 131.251 561.469 131.202 561.735 131.103C562.002 130.994 562.205 130.841 562.343 130.643C562.481 130.446 562.551 130.199 562.551 129.902C562.551 129.487 562.407 129.176 562.121 128.968C561.834 128.761 561.414 128.657 560.861 128.657H559.986C559.66 128.657 559.408 128.578 559.23 128.42C559.062 128.252 558.978 128.025 558.978 127.738C558.978 127.441 559.062 127.214 559.23 127.056C559.408 126.888 559.66 126.804 559.986 126.804H560.638C560.974 126.804 561.256 126.755 561.483 126.656C561.72 126.547 561.903 126.399 562.032 126.211C562.17 126.023 562.239 125.791 562.239 125.515C562.239 125.119 562.101 124.818 561.824 124.61C561.557 124.403 561.167 124.299 560.653 124.299C560.337 124.299 560.026 124.339 559.719 124.418C559.413 124.487 559.082 124.615 558.726 124.803C558.509 124.912 558.306 124.946 558.119 124.907C557.931 124.867 557.773 124.778 557.644 124.64C557.526 124.502 557.447 124.344 557.407 124.166C557.377 123.978 557.402 123.79 557.481 123.602C557.57 123.415 557.728 123.261 557.956 123.143C558.38 122.896 558.84 122.708 559.334 122.58C559.838 122.451 560.347 122.387 560.861 122.387C561.612 122.387 562.254 122.501 562.788 122.728C563.321 122.955 563.731 123.281 564.018 123.706C564.305 124.121 564.448 124.625 564.448 125.218C564.448 125.623 564.369 125.994 564.211 126.33C564.053 126.666 563.83 126.952 563.544 127.19C563.267 127.417 562.926 127.58 562.521 127.679V127.486C563.223 127.605 563.771 127.896 564.166 128.36C564.562 128.825 564.759 129.408 564.759 130.11C564.759 130.732 564.601 131.276 564.285 131.74C563.969 132.195 563.514 132.545 562.921 132.792C562.338 133.04 561.641 133.163 560.831 133.163Z" fill="#FDFDFE"/>
<path d="M661.825 133.133C661.548 133.133 661.321 133.069 661.143 132.941C660.975 132.812 660.866 132.639 660.817 132.422C660.777 132.205 660.822 131.962 660.95 131.696L664.745 123.38C664.903 123.044 665.091 122.802 665.308 122.654C665.525 122.496 665.777 122.417 666.064 122.417C666.351 122.417 666.603 122.496 666.82 122.654C667.037 122.802 667.22 123.044 667.368 123.38L671.193 131.696C671.321 131.962 671.366 132.209 671.326 132.437C671.296 132.654 671.198 132.827 671.03 132.956C670.862 133.074 670.644 133.133 670.377 133.133C670.041 133.133 669.78 133.054 669.592 132.896C669.414 132.738 669.256 132.491 669.117 132.155L668.228 130.095L669.147 130.732H662.966L663.885 130.095L663.011 132.155C662.862 132.501 662.704 132.753 662.536 132.911C662.378 133.059 662.141 133.133 661.825 133.133ZM666.034 124.996L664.137 129.517L663.737 128.939H668.376L667.976 129.517L666.064 124.996H666.034ZM677.714 133.133C677.358 133.133 677.076 133.035 676.869 132.837C676.671 132.639 676.572 132.353 676.572 131.977V131.132H673.252C672.886 131.132 672.595 131.053 672.377 130.895C672.16 130.727 672.051 130.475 672.051 130.139C672.051 129.942 672.096 129.739 672.185 129.531C672.274 129.324 672.432 129.067 672.659 128.761L676.498 123.173C676.666 122.926 676.854 122.738 677.061 122.609C677.269 122.481 677.506 122.417 677.773 122.417C678.089 122.417 678.341 122.515 678.529 122.713C678.726 122.901 678.825 123.187 678.825 123.573V129.324H679.374C679.7 129.324 679.947 129.403 680.115 129.561C680.283 129.709 680.367 129.932 680.367 130.228C680.367 130.515 680.283 130.737 680.115 130.895C679.957 131.053 679.71 131.132 679.374 131.132H678.825V131.977C678.825 132.353 678.726 132.639 678.529 132.837C678.341 133.035 678.069 133.133 677.714 133.133ZM676.572 129.324V125.248H677.002L673.845 129.887V129.324H676.572Z" fill="#FDFDFE"/>
<path d="M776.825 112.133C776.548 112.133 776.321 112.069 776.143 111.941C775.975 111.812 775.866 111.639 775.817 111.422C775.777 111.205 775.822 110.962 775.95 110.696L779.745 102.38C779.903 102.044 780.091 101.802 780.308 101.654C780.525 101.496 780.777 101.417 781.064 101.417C781.351 101.417 781.603 101.496 781.82 101.654C782.037 101.802 782.22 102.044 782.368 102.38L786.193 110.696C786.321 110.962 786.366 111.209 786.326 111.437C786.296 111.654 786.198 111.827 786.03 111.956C785.862 112.074 785.644 112.133 785.377 112.133C785.041 112.133 784.78 112.054 784.592 111.896C784.414 111.738 784.256 111.491 784.117 111.155L783.228 109.095L784.147 109.732H777.966L778.885 109.095L778.011 111.155C777.862 111.501 777.704 111.753 777.536 111.911C777.378 112.059 777.141 112.133 776.825 112.133ZM781.034 103.996L779.137 108.517L778.737 107.939H783.376L782.976 108.517L781.064 103.996H781.034ZM791.098 112.163C790.594 112.163 790.075 112.099 789.542 111.97C789.008 111.842 788.519 111.649 788.074 111.392C787.847 111.264 787.689 111.106 787.6 110.918C787.521 110.73 787.496 110.537 787.526 110.34C787.565 110.142 787.644 109.974 787.763 109.836C787.891 109.688 788.049 109.594 788.237 109.554C788.435 109.515 788.652 109.559 788.889 109.688C789.235 109.866 789.586 110.004 789.942 110.103C790.307 110.202 790.678 110.251 791.053 110.251C791.429 110.251 791.75 110.187 792.017 110.058C792.284 109.93 792.486 109.752 792.625 109.525C792.763 109.297 792.832 109.031 792.832 108.724C792.832 108.25 792.679 107.869 792.373 107.583C792.076 107.296 791.671 107.153 791.157 107.153C790.9 107.153 790.638 107.197 790.372 107.286C790.115 107.365 789.848 107.509 789.571 107.716C789.472 107.795 789.344 107.869 789.186 107.939C789.028 108.008 788.86 108.042 788.682 108.042C788.376 108.042 788.148 107.973 788 107.835C787.852 107.687 787.778 107.474 787.778 107.197V102.543C787.778 102.217 787.862 101.97 788.03 101.802C788.208 101.634 788.455 101.55 788.771 101.55H793.529C793.855 101.55 794.102 101.634 794.27 101.802C794.438 101.96 794.522 102.192 794.522 102.499C794.522 102.795 794.438 103.027 794.27 103.195C794.102 103.353 793.855 103.432 793.529 103.432H789.986V106.264H789.423C789.67 105.957 789.996 105.72 790.401 105.552C790.806 105.384 791.251 105.3 791.735 105.3C792.397 105.3 792.975 105.443 793.47 105.73C793.964 106.007 794.349 106.397 794.626 106.901C794.902 107.405 795.041 107.988 795.041 108.65C795.041 109.342 794.883 109.954 794.566 110.488C794.25 111.012 793.796 111.422 793.203 111.718C792.61 112.015 791.908 112.163 791.098 112.163Z" fill="#FDFDFE"/>
<path d="M776.825 233.133C776.548 233.133 776.321 233.069 776.143 232.941C775.975 232.812 775.866 232.639 775.817 232.422C775.777 232.205 775.822 231.962 775.95 231.696L779.745 223.38C779.903 223.044 780.091 222.802 780.308 222.654C780.525 222.496 780.777 222.417 781.064 222.417C781.351 222.417 781.603 222.496 781.82 222.654C782.037 222.802 782.22 223.044 782.368 223.38L786.193 231.696C786.321 231.962 786.366 232.209 786.326 232.437C786.296 232.654 786.198 232.827 786.03 232.956C785.862 233.074 785.644 233.133 785.377 233.133C785.041 233.133 784.78 233.054 784.592 232.896C784.414 232.738 784.256 232.491 784.117 232.155L783.228 230.095L784.147 230.732H777.966L778.885 230.095L778.011 232.155C777.862 232.501 777.704 232.753 777.536 232.911C777.378 233.059 777.141 233.133 776.825 233.133ZM781.034 224.996L779.137 229.517L778.737 228.939H783.376L782.976 229.517L781.064 224.996H781.034ZM791.483 233.163C790.594 233.163 789.838 232.956 789.215 232.54C788.593 232.125 788.119 231.528 787.792 230.747C787.466 229.966 787.303 229.023 787.303 227.916C787.303 227.036 787.407 226.256 787.615 225.574C787.832 224.892 788.138 224.314 788.534 223.84C788.929 223.365 789.413 223.005 789.986 222.758C790.569 222.51 791.221 222.387 791.943 222.387C792.368 222.387 792.798 222.446 793.232 222.565C793.667 222.683 794.072 222.861 794.448 223.098C794.646 223.197 794.779 223.341 794.848 223.528C794.927 223.706 794.952 223.889 794.922 224.077C794.893 224.264 794.818 224.432 794.7 224.581C794.581 224.719 794.428 224.813 794.24 224.862C794.062 224.902 793.855 224.867 793.618 224.759C793.311 224.591 793.015 224.472 792.728 224.403C792.452 224.334 792.18 224.299 791.913 224.299C791.389 224.299 790.945 224.418 790.579 224.655C790.214 224.892 789.937 225.248 789.749 225.722C789.571 226.196 789.482 226.784 789.482 227.486V228.449H789.275C789.364 227.975 789.527 227.575 789.764 227.249C790.011 226.913 790.322 226.656 790.698 226.478C791.073 226.3 791.488 226.211 791.943 226.211C792.536 226.211 793.059 226.359 793.514 226.656C793.978 226.942 794.344 227.343 794.611 227.857C794.878 228.36 795.011 228.939 795.011 229.591C795.011 230.283 794.863 230.9 794.566 231.444C794.27 231.977 793.855 232.397 793.321 232.704C792.798 233.01 792.185 233.163 791.483 233.163ZM791.365 231.37C791.671 231.37 791.938 231.3 792.165 231.162C792.402 231.024 792.58 230.826 792.699 230.569C792.827 230.312 792.891 230.016 792.891 229.68C792.891 229.344 792.827 229.052 792.699 228.805C792.58 228.548 792.402 228.351 792.165 228.212C791.938 228.064 791.671 227.99 791.365 227.99C791.058 227.99 790.787 228.064 790.55 228.212C790.322 228.351 790.144 228.548 790.016 228.805C789.887 229.052 789.823 229.344 789.823 229.68C789.823 230.016 789.887 230.312 790.016 230.569C790.144 230.826 790.322 231.024 790.55 231.162C790.787 231.3 791.058 231.37 791.365 231.37Z" fill="#FDFDFE"/>
<path d="M664.825 259.133C664.548 259.133 664.321 259.069 664.143 258.941C663.975 258.812 663.866 258.639 663.817 258.422C663.777 258.205 663.822 257.962 663.95 257.696L667.745 249.38C667.903 249.044 668.091 248.802 668.308 248.654C668.525 248.496 668.777 248.417 669.064 248.417C669.351 248.417 669.603 248.496 669.82 248.654C670.037 248.802 670.22 249.044 670.368 249.38L674.193 257.696C674.321 257.962 674.366 258.209 674.326 258.437C674.296 258.654 674.198 258.827 674.03 258.956C673.862 259.074 673.644 259.133 673.377 259.133C673.041 259.133 672.78 259.054 672.592 258.896C672.414 258.738 672.256 258.491 672.117 258.155L671.228 256.095L672.147 256.732H665.966L666.885 256.095L666.011 258.155C665.862 258.501 665.704 258.753 665.536 258.911C665.378 259.059 665.141 259.133 664.825 259.133ZM669.034 250.996L667.137 255.517L666.737 254.939H671.376L670.976 255.517L669.064 250.996H669.034ZM677.23 259.133C676.944 259.133 676.711 259.069 676.534 258.941C676.356 258.802 676.252 258.624 676.222 258.407C676.193 258.19 676.252 257.948 676.4 257.681L680.684 249.736V250.447H676.208C675.881 250.447 675.634 250.368 675.466 250.21C675.298 250.042 675.214 249.805 675.214 249.499C675.214 249.192 675.298 248.96 675.466 248.802C675.634 248.634 675.881 248.55 676.208 248.55H681.855C682.171 248.55 682.428 248.634 682.626 248.802C682.833 248.97 682.937 249.207 682.937 249.513C682.937 249.78 682.897 250.013 682.818 250.21C682.749 250.408 682.655 250.62 682.537 250.848L678.535 258.392C678.396 258.649 678.223 258.837 678.016 258.956C677.808 259.074 677.546 259.133 677.23 259.133Z" fill="#FDFDFE"/>
<path d="M776.825 436.133C776.548 436.133 776.321 436.069 776.143 435.941C775.975 435.812 775.866 435.639 775.817 435.422C775.777 435.205 775.822 434.962 775.95 434.696L779.745 426.38C779.903 426.044 780.091 425.802 780.308 425.654C780.525 425.496 780.777 425.417 781.064 425.417C781.351 425.417 781.603 425.496 781.82 425.654C782.037 425.802 782.22 426.044 782.368 426.38L786.193 434.696C786.321 434.962 786.366 435.209 786.326 435.437C786.296 435.654 786.198 435.827 786.03 435.956C785.862 436.074 785.644 436.133 785.377 436.133C785.041 436.133 784.78 436.054 784.592 435.896C784.414 435.738 784.256 435.491 784.117 435.155L783.228 433.095L784.147 433.732H777.966L778.885 433.095L778.011 435.155C777.862 435.501 777.704 435.753 777.536 435.911C777.378 436.059 777.141 436.133 776.825 436.133ZM781.034 427.996L779.137 432.517L778.737 431.939H783.376L782.976 432.517L781.064 427.996H781.034ZM791.083 436.163C790.253 436.163 789.542 436.044 788.949 435.807C788.356 435.57 787.901 435.229 787.585 434.785C787.269 434.33 787.111 433.786 787.111 433.154C787.111 432.66 787.209 432.22 787.407 431.835C787.615 431.449 787.896 431.138 788.252 430.901C788.608 430.664 789.008 430.516 789.453 430.456V430.842C788.83 430.703 788.326 430.402 787.941 429.938C787.565 429.463 787.377 428.895 787.377 428.233C787.377 427.64 787.526 427.131 787.822 426.706C788.128 426.281 788.558 425.955 789.112 425.728C789.675 425.501 790.332 425.387 791.083 425.387C791.844 425.387 792.501 425.501 793.055 425.728C793.608 425.955 794.038 426.281 794.344 426.706C794.65 427.131 794.804 427.64 794.804 428.233C794.804 428.678 794.715 429.083 794.537 429.448C794.369 429.814 794.127 430.115 793.81 430.353C793.504 430.59 793.148 430.743 792.743 430.812V430.456C793.425 430.555 793.978 430.847 794.403 431.331C794.838 431.815 795.056 432.423 795.056 433.154C795.056 433.786 794.897 434.33 794.581 434.785C794.265 435.229 793.81 435.57 793.218 435.807C792.625 436.044 791.913 436.163 791.083 436.163ZM791.083 434.399C791.696 434.399 792.16 434.281 792.476 434.043C792.793 433.806 792.951 433.455 792.951 432.991C792.951 432.527 792.793 432.181 792.476 431.953C792.16 431.716 791.696 431.598 791.083 431.598C790.47 431.598 790.006 431.716 789.69 431.953C789.374 432.181 789.215 432.527 789.215 432.991C789.215 433.455 789.374 433.806 789.69 434.043C790.006 434.281 790.47 434.399 791.083 434.399ZM791.083 429.834C791.419 429.834 791.706 429.779 791.943 429.671C792.19 429.562 792.373 429.404 792.491 429.196C792.62 428.989 792.684 428.752 792.684 428.485C792.684 428.07 792.541 427.744 792.254 427.507C791.977 427.269 791.587 427.151 791.083 427.151C790.579 427.151 790.189 427.269 789.912 427.507C789.635 427.744 789.497 428.07 789.497 428.485C789.497 428.9 789.635 429.231 789.912 429.478C790.189 429.715 790.579 429.834 791.083 429.834Z" fill="#FDFDFE"/>
<path d="M100.825 129.133C100.548 129.133 100.321 129.069 100.143 128.941C99.9749 128.812 99.8662 128.639 99.8168 128.422C99.7773 128.205 99.8217 127.962 99.9502 127.696L103.745 119.38C103.903 119.044 104.091 118.802 104.308 118.654C104.525 118.496 104.777 118.417 105.064 118.417C105.351 118.417 105.603 118.496 105.82 118.654C106.037 118.802 106.22 119.044 106.368 119.38L110.193 127.696C110.321 127.962 110.366 128.209 110.326 128.437C110.296 128.654 110.198 128.827 110.03 128.956C109.862 129.074 109.644 129.133 109.377 129.133C109.041 129.133 108.78 129.054 108.592 128.896C108.414 128.738 108.256 128.491 108.117 128.155L107.228 126.095L108.147 126.732H101.966L102.885 126.095L102.011 128.155C101.862 128.501 101.704 128.753 101.536 128.911C101.378 129.059 101.141 129.133 100.825 129.133ZM105.034 120.996L103.137 125.517L102.737 124.939H107.376L106.976 125.517L105.064 120.996H105.034ZM114.223 129.163C113.798 129.163 113.369 129.104 112.934 128.985C112.499 128.867 112.094 128.689 111.718 128.452C111.521 128.353 111.382 128.214 111.303 128.037C111.234 127.849 111.214 127.661 111.244 127.473C111.274 127.286 111.348 127.122 111.466 126.984C111.585 126.836 111.733 126.742 111.911 126.702C112.099 126.653 112.311 126.683 112.548 126.791C112.855 126.959 113.146 127.078 113.423 127.147C113.71 127.216 113.986 127.251 114.253 127.251C114.777 127.251 115.221 127.132 115.587 126.895C115.953 126.658 116.224 126.302 116.402 125.828C116.59 125.344 116.684 124.756 116.684 124.064V123.101H116.891C116.812 123.565 116.649 123.965 116.402 124.301C116.155 124.637 115.844 124.894 115.469 125.072C115.093 125.25 114.678 125.339 114.223 125.339C113.64 125.339 113.117 125.196 112.652 124.909C112.188 124.612 111.822 124.207 111.555 123.693C111.289 123.18 111.155 122.602 111.155 121.959C111.155 121.267 111.303 120.655 111.6 120.121C111.896 119.578 112.311 119.153 112.845 118.846C113.379 118.54 113.991 118.387 114.683 118.387C115.582 118.387 116.338 118.594 116.951 119.01C117.573 119.415 118.048 120.013 118.374 120.803C118.7 121.584 118.863 122.527 118.863 123.634C118.863 124.514 118.754 125.294 118.537 125.976C118.329 126.658 118.028 127.236 117.633 127.71C117.237 128.185 116.748 128.545 116.165 128.792C115.592 129.04 114.945 129.163 114.223 129.163ZM114.816 123.545C115.123 123.545 115.389 123.476 115.617 123.338C115.854 123.19 116.037 122.987 116.165 122.73C116.294 122.473 116.358 122.182 116.358 121.855C116.358 121.519 116.294 121.223 116.165 120.966C116.037 120.709 115.854 120.512 115.617 120.373C115.389 120.235 115.123 120.166 114.816 120.166C114.51 120.166 114.243 120.235 114.016 120.373C113.789 120.512 113.606 120.709 113.467 120.966C113.339 121.223 113.275 121.519 113.275 121.855C113.275 122.182 113.339 122.473 113.467 122.73C113.606 122.987 113.789 123.19 114.016 123.338C114.243 123.476 114.51 123.545 114.816 123.545Z" fill="#FDFDFE"/>
<path d="M457.881 435.133C457.604 435.133 457.377 435.069 457.199 434.941C457.031 434.812 456.922 434.639 456.873 434.422C456.833 434.205 456.878 433.962 457.006 433.696L460.801 425.38C460.959 425.044 461.147 424.802 461.364 424.654C461.582 424.496 461.834 424.417 462.12 424.417C462.407 424.417 462.659 424.496 462.876 424.654C463.093 424.802 463.276 425.044 463.425 425.38L467.249 433.696C467.377 433.962 467.422 434.209 467.382 434.437C467.353 434.654 467.254 434.827 467.086 434.956C466.918 435.074 466.7 435.133 466.434 435.133C466.098 435.133 465.836 435.054 465.648 434.896C465.47 434.738 465.312 434.491 465.174 434.155L464.284 432.095L465.203 432.732H459.022L459.941 432.095L459.067 434.155C458.918 434.501 458.76 434.753 458.592 434.911C458.434 435.059 458.197 435.133 457.881 435.133ZM462.09 426.996L460.193 431.517L459.793 430.939H464.432L464.032 431.517L462.12 426.996H462.09ZM470.02 435C469.703 435 469.461 434.916 469.293 434.748C469.125 434.58 469.041 434.348 469.041 434.051C469.041 433.745 469.125 433.513 469.293 433.355C469.461 433.197 469.703 433.118 470.02 433.118H471.517V426.432H472.599L470.435 427.752C470.207 427.89 469.995 427.944 469.797 427.915C469.609 427.885 469.446 427.801 469.308 427.663C469.17 427.524 469.076 427.361 469.026 427.174C468.987 426.976 469.007 426.783 469.086 426.596C469.165 426.398 469.313 426.23 469.53 426.092L471.591 424.846C471.798 424.718 472.006 424.614 472.213 424.535C472.431 424.456 472.643 424.417 472.851 424.417C473.147 424.417 473.379 424.496 473.547 424.654C473.725 424.802 473.814 425.034 473.814 425.35V433.118H475.163C475.469 433.118 475.707 433.197 475.875 433.355C476.043 433.513 476.127 433.745 476.127 434.051C476.127 434.358 476.043 434.595 475.875 434.763C475.707 434.921 475.469 435 475.163 435H470.02ZM478.907 435C478.591 435 478.349 434.916 478.181 434.748C478.013 434.58 477.929 434.348 477.929 434.051C477.929 433.745 478.013 433.513 478.181 433.355C478.349 433.197 478.591 433.118 478.907 433.118H480.404V426.432H481.487L479.322 427.752C479.095 427.89 478.883 427.944 478.685 427.915C478.497 427.885 478.334 427.801 478.196 427.663C478.058 427.524 477.964 427.361 477.914 427.174C477.875 426.976 477.895 426.783 477.974 426.596C478.053 426.398 478.201 426.23 478.418 426.092L480.479 424.846C480.686 424.718 480.894 424.614 481.101 424.535C481.319 424.456 481.531 424.417 481.739 424.417C482.035 424.417 482.267 424.496 482.435 424.654C482.613 424.802 482.702 425.034 482.702 425.35V433.118H484.051C484.357 433.118 484.594 433.197 484.762 433.355C484.93 433.513 485.014 433.745 485.014 434.051C485.014 434.358 484.93 434.595 484.762 434.763C484.594 434.921 484.357 435 484.051 435H478.907Z" fill="#FDFDFE"/>
<path d="M519.881 259.133C519.604 259.133 519.377 259.069 519.199 258.941C519.031 258.812 518.922 258.639 518.873 258.422C518.833 258.205 518.878 257.962 519.006 257.696L522.801 249.38C522.959 249.044 523.147 248.802 523.364 248.654C523.582 248.496 523.834 248.417 524.12 248.417C524.407 248.417 524.659 248.496 524.876 248.654C525.093 248.802 525.276 249.044 525.425 249.38L529.249 257.696C529.377 257.962 529.422 258.209 529.382 258.437C529.353 258.654 529.254 258.827 529.086 258.956C528.918 259.074 528.7 259.133 528.434 259.133C528.098 259.133 527.836 259.054 527.648 258.896C527.47 258.738 527.312 258.491 527.174 258.155L526.284 256.095L527.203 256.732H521.022L521.941 256.095L521.067 258.155C520.918 258.501 520.76 258.753 520.592 258.911C520.434 259.059 520.197 259.133 519.881 259.133ZM524.09 250.996L522.193 255.517L521.793 254.939H526.432L526.032 255.517L524.12 250.996H524.09ZM532.02 259C531.703 259 531.461 258.916 531.293 258.748C531.125 258.58 531.041 258.348 531.041 258.051C531.041 257.745 531.125 257.513 531.293 257.355C531.461 257.197 531.703 257.118 532.02 257.118H533.517V250.432H534.599L532.435 251.752C532.207 251.89 531.995 251.944 531.797 251.915C531.609 251.885 531.446 251.801 531.308 251.663C531.17 251.524 531.076 251.361 531.026 251.174C530.987 250.976 531.007 250.783 531.086 250.596C531.165 250.398 531.313 250.23 531.53 250.092L533.591 248.846C533.798 248.718 534.006 248.614 534.213 248.535C534.431 248.456 534.643 248.417 534.851 248.417C535.147 248.417 535.379 248.496 535.547 248.654C535.725 248.802 535.814 249.034 535.814 249.35V257.118H537.163C537.469 257.118 537.707 257.197 537.875 257.355C538.043 257.513 538.127 257.745 538.127 258.051C538.127 258.358 538.043 258.595 537.875 258.763C537.707 258.921 537.469 259 537.163 259H532.02ZM540.626 259C540.26 259 539.988 258.916 539.811 258.748C539.643 258.57 539.559 258.313 539.559 257.977C539.559 257.76 539.613 257.557 539.722 257.37C539.83 257.182 539.978 256.989 540.166 256.791L542.953 253.857C543.368 253.412 543.664 253.017 543.842 252.671C544.03 252.325 544.124 251.979 544.124 251.633C544.124 251.198 543.981 250.867 543.694 250.64C543.417 250.413 543.012 250.299 542.479 250.299C542.192 250.299 541.896 250.344 541.589 250.432C541.293 250.512 540.981 250.645 540.655 250.833C540.438 250.951 540.235 250.996 540.048 250.966C539.87 250.927 539.717 250.843 539.588 250.714C539.46 250.576 539.376 250.413 539.336 250.225C539.297 250.037 539.316 249.849 539.395 249.662C539.475 249.474 539.623 249.316 539.84 249.187C540.275 248.921 540.749 248.723 541.263 248.594C541.777 248.456 542.286 248.387 542.79 248.387C543.571 248.387 544.228 248.506 544.761 248.743C545.295 248.97 545.7 249.306 545.977 249.751C546.253 250.195 546.392 250.739 546.392 251.381C546.392 251.796 546.328 252.201 546.199 252.597C546.071 252.992 545.868 253.392 545.591 253.797C545.325 254.193 544.969 254.617 544.524 255.072L541.93 257.71V257.118H545.947C546.263 257.118 546.5 257.197 546.659 257.355C546.827 257.513 546.911 257.745 546.911 258.051C546.911 258.358 546.827 258.595 546.659 258.763C546.5 258.921 546.263 259 545.947 259H540.626Z" fill="#FDFDFE"/>
<path d="M588.881 261.133C588.604 261.133 588.377 261.069 588.199 260.941C588.031 260.812 587.922 260.639 587.873 260.422C587.833 260.205 587.878 259.962 588.006 259.696L591.801 251.38C591.959 251.044 592.147 250.802 592.364 250.654C592.582 250.496 592.834 250.417 593.12 250.417C593.407 250.417 593.659 250.496 593.876 250.654C594.093 250.802 594.276 251.044 594.425 251.38L598.249 259.696C598.377 259.962 598.422 260.209 598.382 260.437C598.353 260.654 598.254 260.827 598.086 260.956C597.918 261.074 597.7 261.133 597.434 261.133C597.098 261.133 596.836 261.054 596.648 260.896C596.47 260.738 596.312 260.491 596.174 260.155L595.284 258.095L596.203 258.732H590.022L590.941 258.095L590.067 260.155C589.918 260.501 589.76 260.753 589.592 260.911C589.434 261.059 589.197 261.133 588.881 261.133ZM593.09 252.996L591.193 257.517L590.793 256.939H595.432L595.032 257.517L593.12 252.996H593.09ZM601.02 261C600.703 261 600.461 260.916 600.293 260.748C600.125 260.58 600.041 260.348 600.041 260.051C600.041 259.745 600.125 259.513 600.293 259.355C600.461 259.197 600.703 259.118 601.02 259.118H602.517V252.432H603.599L601.435 253.752C601.207 253.89 600.995 253.944 600.797 253.915C600.609 253.885 600.446 253.801 600.308 253.663C600.17 253.524 600.076 253.361 600.026 253.174C599.987 252.976 600.007 252.783 600.086 252.596C600.165 252.398 600.313 252.23 600.53 252.092L602.591 250.846C602.798 250.718 603.006 250.614 603.213 250.535C603.431 250.456 603.643 250.417 603.851 250.417C604.147 250.417 604.379 250.496 604.547 250.654C604.725 250.802 604.814 251.034 604.814 251.35V259.118H606.163C606.469 259.118 606.707 259.197 606.875 259.355C607.043 259.513 607.127 259.745 607.127 260.051C607.127 260.358 607.043 260.595 606.875 260.763C606.707 260.921 606.469 261 606.163 261H601.02ZM611.775 261.163C611.251 261.163 610.718 261.104 610.174 260.985C609.641 260.857 609.176 260.679 608.781 260.452C608.524 260.313 608.346 260.15 608.247 259.962C608.158 259.765 608.124 259.572 608.143 259.384C608.173 259.197 608.252 259.034 608.381 258.895C608.509 258.747 608.672 258.653 608.87 258.614C609.077 258.574 609.305 258.614 609.552 258.732C609.937 258.92 610.303 259.053 610.649 259.132C610.994 259.211 611.34 259.251 611.686 259.251C612.081 259.251 612.412 259.202 612.679 259.103C612.946 258.994 613.149 258.841 613.287 258.643C613.425 258.446 613.494 258.199 613.494 257.902C613.494 257.487 613.351 257.176 613.065 256.968C612.778 256.761 612.358 256.657 611.805 256.657H610.93C610.604 256.657 610.352 256.578 610.174 256.42C610.006 256.252 609.922 256.025 609.922 255.738C609.922 255.441 610.006 255.214 610.174 255.056C610.352 254.888 610.604 254.804 610.93 254.804H611.582C611.918 254.804 612.2 254.755 612.427 254.656C612.664 254.547 612.847 254.399 612.976 254.211C613.114 254.023 613.183 253.791 613.183 253.515C613.183 253.119 613.045 252.818 612.768 252.61C612.501 252.403 612.111 252.299 611.597 252.299C611.281 252.299 610.97 252.339 610.663 252.418C610.357 252.487 610.026 252.615 609.67 252.803C609.453 252.912 609.25 252.946 609.062 252.907C608.875 252.867 608.717 252.778 608.588 252.64C608.47 252.502 608.391 252.344 608.351 252.166C608.321 251.978 608.346 251.79 608.425 251.602C608.514 251.415 608.672 251.261 608.899 251.143C609.324 250.896 609.784 250.708 610.278 250.58C610.782 250.451 611.291 250.387 611.805 250.387C612.556 250.387 613.198 250.501 613.732 250.728C614.265 250.955 614.675 251.281 614.962 251.706C615.248 252.121 615.392 252.625 615.392 253.218C615.392 253.623 615.313 253.994 615.155 254.33C614.997 254.666 614.774 254.952 614.488 255.19C614.211 255.417 613.87 255.58 613.465 255.679V255.486C614.166 255.605 614.715 255.896 615.11 256.36C615.505 256.825 615.703 257.408 615.703 258.11C615.703 258.732 615.545 259.276 615.229 259.74C614.913 260.195 614.458 260.545 613.865 260.792C613.282 261.04 612.585 261.163 611.775 261.163Z" fill="#FDFDFE"/>
<path d="M634.881 448.133C634.604 448.133 634.377 448.069 634.199 447.941C634.031 447.812 633.922 447.639 633.873 447.422C633.833 447.205 633.878 446.962 634.006 446.696L637.801 438.38C637.959 438.044 638.147 437.802 638.364 437.654C638.582 437.496 638.834 437.417 639.12 437.417C639.407 437.417 639.659 437.496 639.876 437.654C640.093 437.802 640.276 438.044 640.425 438.38L644.249 446.696C644.377 446.962 644.422 447.209 644.382 447.437C644.353 447.654 644.254 447.827 644.086 447.956C643.918 448.074 643.7 448.133 643.434 448.133C643.098 448.133 642.836 448.054 642.648 447.896C642.47 447.738 642.312 447.491 642.174 447.155L641.284 445.095L642.203 445.732H636.022L636.941 445.095L636.067 447.155C635.918 447.501 635.76 447.753 635.592 447.911C635.434 448.059 635.197 448.133 634.881 448.133ZM639.09 439.996L637.193 444.517L636.793 443.939H641.432L641.032 444.517L639.12 439.996H639.09ZM647.02 448C646.703 448 646.461 447.916 646.293 447.748C646.125 447.58 646.041 447.348 646.041 447.051C646.041 446.745 646.125 446.513 646.293 446.355C646.461 446.197 646.703 446.118 647.02 446.118H648.517V439.432H649.599L647.435 440.752C647.207 440.89 646.995 440.944 646.797 440.915C646.609 440.885 646.446 440.801 646.308 440.663C646.17 440.524 646.076 440.361 646.026 440.174C645.987 439.976 646.007 439.783 646.086 439.596C646.165 439.398 646.313 439.23 646.53 439.092L648.591 437.846C648.798 437.718 649.006 437.614 649.213 437.535C649.431 437.456 649.643 437.417 649.851 437.417C650.147 437.417 650.379 437.496 650.547 437.654C650.725 437.802 650.814 438.034 650.814 438.35V446.118H652.163C652.469 446.118 652.707 446.197 652.875 446.355C653.043 446.513 653.127 446.745 653.127 447.051C653.127 447.358 653.043 447.595 652.875 447.763C652.707 447.921 652.469 448 652.163 448H647.02ZM659.658 448.133C659.302 448.133 659.02 448.035 658.813 447.837C658.615 447.639 658.516 447.353 658.516 446.977V446.132H655.196C654.83 446.132 654.539 446.053 654.321 445.895C654.104 445.727 653.995 445.475 653.995 445.139C653.995 444.942 654.04 444.739 654.129 444.531C654.218 444.324 654.376 444.067 654.603 443.761L658.442 438.173C658.61 437.926 658.798 437.738 659.005 437.609C659.213 437.481 659.45 437.417 659.717 437.417C660.033 437.417 660.285 437.515 660.473 437.713C660.67 437.901 660.769 438.187 660.769 438.573V444.324H661.318C661.644 444.324 661.891 444.403 662.059 444.561C662.227 444.709 662.311 444.932 662.311 445.228C662.311 445.515 662.227 445.737 662.059 445.895C661.901 446.053 661.654 446.132 661.318 446.132H660.769V446.977C660.769 447.353 660.67 447.639 660.473 447.837C660.285 448.035 660.013 448.133 659.658 448.133ZM658.516 444.324V440.248H658.946L655.789 444.887V444.324H658.516Z" fill="#FDFDFE"/>
<path d="M71.8808 253.133C71.6041 253.133 71.3768 253.069 71.199 252.941C71.031 252.812 70.9223 252.639 70.8729 252.422C70.8333 252.205 70.8778 251.962 71.0063 251.696L74.8009 243.38C74.959 243.044 75.1467 242.802 75.3641 242.654C75.5815 242.496 75.8335 242.417 76.1201 242.417C76.4067 242.417 76.6587 242.496 76.8761 242.654C77.0935 242.802 77.2763 243.044 77.4245 243.38L81.2488 251.696C81.3772 251.962 81.4217 252.209 81.3822 252.437C81.3525 252.654 81.2537 252.827 81.0857 252.956C80.9177 253.074 80.7003 253.133 80.4335 253.133C80.0975 253.133 79.8357 253.054 79.6479 252.896C79.47 252.738 79.3119 252.491 79.1736 252.155L78.2842 250.095L79.2032 250.732H73.0222L73.9412 250.095L73.0666 252.155C72.9184 252.501 72.7603 252.753 72.5923 252.911C72.4342 253.059 72.197 253.133 71.8808 253.133ZM76.0905 244.996L74.1932 249.517L73.7929 248.939H78.4324L78.0322 249.517L76.1201 244.996H76.0905ZM84.0196 253C83.7033 253 83.4612 252.916 83.2932 252.748C83.1253 252.58 83.0413 252.348 83.0413 252.051C83.0413 251.745 83.1253 251.513 83.2932 251.355C83.4612 251.197 83.7033 251.118 84.0196 251.118H85.5167V244.432H86.5987L84.4346 245.752C84.2073 245.89 83.9949 245.944 83.7972 245.915C83.6095 245.885 83.4464 245.801 83.3081 245.663C83.1697 245.524 83.0758 245.361 83.0264 245.174C82.9869 244.976 83.0067 244.783 83.0857 244.596C83.1648 244.398 83.313 244.23 83.5304 244.092L85.5908 242.846C85.7983 242.718 86.0058 242.614 86.2133 242.535C86.4307 242.456 86.6432 242.417 86.8507 242.417C87.1471 242.417 87.3794 242.496 87.5474 242.654C87.7252 242.802 87.8142 243.034 87.8142 243.35V251.118H89.163C89.4694 251.118 89.7065 251.197 89.8745 251.355C90.0425 251.513 90.1265 251.745 90.1265 252.051C90.1265 252.358 90.0425 252.595 89.8745 252.763C89.7065 252.921 89.4694 253 89.163 253H84.0196ZM95.0419 253.163C94.5379 253.163 94.0191 253.099 93.4855 252.97C92.9519 252.842 92.4627 252.649 92.018 252.392C91.7907 252.264 91.6326 252.106 91.5437 251.918C91.4646 251.73 91.4399 251.537 91.4696 251.34C91.5091 251.142 91.5882 250.974 91.7067 250.836C91.8352 250.688 91.9933 250.594 92.1811 250.554C92.3787 250.515 92.5961 250.559 92.8333 250.688C93.1791 250.866 93.5299 251.004 93.8857 251.103C94.2513 251.202 94.6219 251.251 94.9974 251.251C95.3729 251.251 95.6941 251.187 95.9609 251.058C96.2277 250.93 96.4302 250.752 96.5686 250.525C96.7069 250.297 96.7761 250.031 96.7761 249.724C96.7761 249.25 96.6229 248.869 96.3166 248.583C96.0202 248.296 95.615 248.153 95.1011 248.153C94.8442 248.153 94.5824 248.197 94.3155 248.286C94.0586 248.365 93.7918 248.509 93.5151 248.716C93.4163 248.795 93.2878 248.869 93.1297 248.939C92.9716 249.008 92.8036 249.042 92.6258 249.042C92.3194 249.042 92.0921 248.973 91.9439 248.835C91.7957 248.687 91.7216 248.474 91.7216 248.197V243.543C91.7216 243.217 91.8056 242.97 91.9736 242.802C92.1514 242.634 92.3985 242.55 92.7147 242.55H97.4728C97.7989 242.55 98.0459 242.634 98.2139 242.802C98.3819 242.96 98.4659 243.192 98.4659 243.499C98.4659 243.795 98.3819 244.027 98.2139 244.195C98.0459 244.353 97.7989 244.432 97.4728 244.432H93.9302V247.264H93.3669C93.6139 246.957 93.94 246.72 94.3452 246.552C94.7503 246.384 95.195 246.3 95.6792 246.3C96.3413 246.3 96.9194 246.443 97.4135 246.73C97.9076 247.007 98.293 247.397 98.5697 247.901C98.8463 248.405 98.9847 248.988 98.9847 249.65C98.9847 250.342 98.8266 250.954 98.5104 251.488C98.1941 252.012 97.7396 252.422 97.1467 252.718C96.5538 253.015 95.8522 253.163 95.0419 253.163Z" fill="#FDFDFE"/>
<path d="M96.8808 204.133C96.6041 204.133 96.3768 204.069 96.199 203.941C96.031 203.812 95.9223 203.639 95.8729 203.422C95.8333 203.205 95.8778 202.962 96.0063 202.696L99.8009 194.38C99.959 194.044 100.147 193.802 100.364 193.654C100.582 193.496 100.834 193.417 101.12 193.417C101.407 193.417 101.659 193.496 101.876 193.654C102.093 193.802 102.276 194.044 102.425 194.38L106.249 202.696C106.377 202.962 106.422 203.209 106.382 203.437C106.353 203.654 106.254 203.827 106.086 203.956C105.918 204.074 105.7 204.133 105.434 204.133C105.098 204.133 104.836 204.054 104.648 203.896C104.47 203.738 104.312 203.491 104.174 203.155L103.284 201.095L104.203 201.732H98.0222L98.9412 201.095L98.0666 203.155C97.9184 203.501 97.7603 203.753 97.5923 203.911C97.4342 204.059 97.197 204.133 96.8808 204.133ZM101.09 195.996L99.1932 200.517L98.7929 199.939H103.432L103.032 200.517L101.12 195.996H101.09ZM109.02 204C108.703 204 108.461 203.916 108.293 203.748C108.125 203.58 108.041 203.348 108.041 203.051C108.041 202.745 108.125 202.513 108.293 202.355C108.461 202.197 108.703 202.118 109.02 202.118H110.517V195.432H111.599L109.435 196.752C109.207 196.89 108.995 196.944 108.797 196.915C108.609 196.885 108.446 196.801 108.308 196.663C108.17 196.524 108.076 196.361 108.026 196.174C107.987 195.976 108.007 195.783 108.086 195.596C108.165 195.398 108.313 195.23 108.53 195.092L110.591 193.846C110.798 193.718 111.006 193.614 111.213 193.535C111.431 193.456 111.643 193.417 111.851 193.417C112.147 193.417 112.379 193.496 112.547 193.654C112.725 193.802 112.814 194.034 112.814 194.35V202.118H114.163C114.469 202.118 114.707 202.197 114.875 202.355C115.043 202.513 115.127 202.745 115.127 203.051C115.127 203.358 115.043 203.595 114.875 203.763C114.707 203.921 114.469 204 114.163 204H109.02ZM120.427 204.163C119.538 204.163 118.782 203.956 118.159 203.54C117.537 203.125 117.062 202.528 116.736 201.747C116.41 200.966 116.247 200.023 116.247 198.916C116.247 198.036 116.351 197.256 116.559 196.574C116.776 195.892 117.082 195.314 117.478 194.84C117.873 194.365 118.357 194.005 118.93 193.758C119.513 193.51 120.165 193.387 120.887 193.387C121.312 193.387 121.742 193.446 122.176 193.565C122.611 193.683 123.016 193.861 123.392 194.098C123.589 194.197 123.723 194.341 123.792 194.528C123.871 194.706 123.896 194.889 123.866 195.077C123.836 195.264 123.762 195.432 123.644 195.581C123.525 195.719 123.372 195.813 123.184 195.862C123.006 195.902 122.799 195.867 122.562 195.759C122.255 195.591 121.959 195.472 121.672 195.403C121.396 195.334 121.124 195.299 120.857 195.299C120.333 195.299 119.889 195.418 119.523 195.655C119.157 195.892 118.881 196.248 118.693 196.722C118.515 197.196 118.426 197.784 118.426 198.486V199.449H118.219C118.308 198.975 118.471 198.575 118.708 198.249C118.955 197.913 119.266 197.656 119.642 197.478C120.017 197.3 120.432 197.211 120.887 197.211C121.48 197.211 122.003 197.359 122.458 197.656C122.922 197.942 123.288 198.343 123.555 198.857C123.822 199.36 123.955 199.939 123.955 200.591C123.955 201.283 123.807 201.9 123.51 202.444C123.214 202.977 122.799 203.397 122.265 203.704C121.742 204.01 121.129 204.163 120.427 204.163ZM120.309 202.37C120.615 202.37 120.882 202.3 121.109 202.162C121.346 202.024 121.524 201.826 121.643 201.569C121.771 201.312 121.835 201.016 121.835 200.68C121.835 200.344 121.771 200.052 121.643 199.805C121.524 199.548 121.346 199.351 121.109 199.212C120.882 199.064 120.615 198.99 120.309 198.99C120.002 198.99 119.731 199.064 119.493 199.212C119.266 199.351 119.088 199.548 118.96 199.805C118.831 200.052 118.767 200.344 118.767 200.68C118.767 201.016 118.831 201.312 118.96 201.569C119.088 201.826 119.266 202.024 119.493 202.162C119.731 202.3 120.002 202.37 120.309 202.37Z" fill="#FDFDFE"/>
<path d="M311.881 212.133C311.604 212.133 311.377 212.069 311.199 211.941C311.031 211.812 310.922 211.639 310.873 211.422C310.833 211.205 310.878 210.962 311.006 210.696L314.801 202.38C314.959 202.044 315.147 201.802 315.364 201.654C315.582 201.496 315.834 201.417 316.12 201.417C316.407 201.417 316.659 201.496 316.876 201.654C317.093 201.802 317.276 202.044 317.425 202.38L321.249 210.696C321.377 210.962 321.422 211.209 321.382 211.437C321.353 211.654 321.254 211.827 321.086 211.956C320.918 212.074 320.7 212.133 320.434 212.133C320.098 212.133 319.836 212.054 319.648 211.896C319.47 211.738 319.312 211.491 319.174 211.155L318.284 209.095L319.203 209.732H313.022L313.941 209.095L313.067 211.155C312.918 211.501 312.76 211.753 312.592 211.911C312.434 212.059 312.197 212.133 311.881 212.133ZM316.09 203.996L314.193 208.517L313.793 207.939H318.432L318.032 208.517L316.12 203.996H316.09ZM324.02 212C323.703 212 323.461 211.916 323.293 211.748C323.125 211.58 323.041 211.348 323.041 211.051C323.041 210.745 323.125 210.513 323.293 210.355C323.461 210.197 323.703 210.118 324.02 210.118H325.517V203.432H326.599L324.435 204.752C324.207 204.89 323.995 204.944 323.797 204.915C323.609 204.885 323.446 204.801 323.308 204.663C323.17 204.524 323.076 204.361 323.026 204.174C322.987 203.976 323.007 203.783 323.086 203.596C323.165 203.398 323.313 203.23 323.53 203.092L325.591 201.846C325.798 201.718 326.006 201.614 326.213 201.535C326.431 201.456 326.643 201.417 326.851 201.417C327.147 201.417 327.379 201.496 327.547 201.654C327.725 201.802 327.814 202.034 327.814 202.35V210.118H329.163C329.469 210.118 329.707 210.197 329.875 210.355C330.043 210.513 330.127 210.745 330.127 211.051C330.127 211.358 330.043 211.595 329.875 211.763C329.707 211.921 329.469 212 329.163 212H324.02ZM333.174 212.133C332.888 212.133 332.655 212.069 332.478 211.941C332.3 211.802 332.196 211.624 332.166 211.407C332.137 211.19 332.196 210.948 332.344 210.681L336.628 202.736V203.447H332.151C331.825 203.447 331.578 203.368 331.41 203.21C331.242 203.042 331.158 202.805 331.158 202.499C331.158 202.192 331.242 201.96 331.41 201.802C331.578 201.634 331.825 201.55 332.151 201.55H337.799C338.115 201.55 338.372 201.634 338.57 201.802C338.777 201.97 338.881 202.207 338.881 202.513C338.881 202.78 338.841 203.013 338.762 203.21C338.693 203.408 338.599 203.62 338.481 203.848L334.479 211.392C334.34 211.649 334.167 211.837 333.96 211.956C333.752 212.074 333.49 212.133 333.174 212.133Z" fill="#FDFDFE"/>
<path d="M686.066 344.076C685.909 344.076 685.78 344.039 685.679 343.966C685.584 343.894 685.523 343.796 685.495 343.672C685.472 343.549 685.497 343.412 685.57 343.261L687.721 338.549C687.81 338.358 687.916 338.221 688.04 338.137C688.163 338.048 688.306 338.003 688.468 338.003C688.63 338.003 688.773 338.048 688.896 338.137C689.02 338.221 689.123 338.358 689.207 338.549L691.374 343.261C691.447 343.412 691.472 343.552 691.45 343.681C691.433 343.804 691.377 343.902 691.282 343.975C691.187 344.042 691.064 344.076 690.912 344.076C690.722 344.076 690.574 344.031 690.467 343.941C690.366 343.852 690.277 343.712 690.198 343.521L689.694 342.354L690.215 342.715H686.713L687.233 342.354L686.738 343.521C686.654 343.717 686.564 343.86 686.469 343.95C686.379 344.034 686.245 344.076 686.066 344.076ZM688.451 339.464L687.376 342.026L687.149 341.699H689.778L689.552 342.026L688.468 339.464H688.451ZM692.944 344C692.765 344 692.628 343.952 692.533 343.857C692.438 343.762 692.39 343.63 692.39 343.462C692.39 343.289 692.438 343.157 692.533 343.068C692.628 342.978 692.765 342.933 692.944 342.933H693.793V339.145H694.406L693.18 339.893C693.051 339.971 692.93 340.002 692.818 339.985C692.712 339.968 692.62 339.921 692.541 339.842C692.463 339.764 692.41 339.671 692.382 339.565C692.359 339.453 692.37 339.344 692.415 339.237C692.46 339.125 692.544 339.03 692.667 338.952L693.835 338.246C693.952 338.174 694.07 338.115 694.188 338.07C694.311 338.025 694.431 338.003 694.549 338.003C694.717 338.003 694.848 338.048 694.944 338.137C695.044 338.221 695.095 338.353 695.095 338.532V342.933H695.859C696.033 342.933 696.167 342.978 696.262 343.068C696.357 343.157 696.405 343.289 696.405 343.462C696.405 343.636 696.357 343.77 696.262 343.866C696.167 343.955 696.033 344 695.859 344H692.944ZM698.132 344.076C697.97 344.076 697.838 344.039 697.737 343.966C697.636 343.888 697.578 343.787 697.561 343.664C697.544 343.541 697.578 343.404 697.662 343.252L700.089 338.75V339.153H697.552C697.368 339.153 697.228 339.109 697.133 339.019C697.037 338.924 696.99 338.789 696.99 338.616C696.99 338.442 697.037 338.311 697.133 338.221C697.228 338.126 697.368 338.078 697.552 338.078H700.753C700.932 338.078 701.077 338.126 701.189 338.221C701.307 338.316 701.366 338.451 701.366 338.624C701.366 338.775 701.343 338.907 701.299 339.019C701.259 339.131 701.206 339.251 701.139 339.38L698.871 343.656C698.793 343.801 698.695 343.908 698.577 343.975C698.46 344.042 698.311 344.076 698.132 344.076Z" fill="#FDFDFE"/>
<path d="M572.066 344.076C571.909 344.076 571.78 344.039 571.679 343.966C571.584 343.894 571.523 343.796 571.495 343.672C571.472 343.549 571.497 343.412 571.57 343.261L573.721 338.549C573.81 338.358 573.916 338.221 574.04 338.137C574.163 338.048 574.306 338.003 574.468 338.003C574.63 338.003 574.773 338.048 574.896 338.137C575.02 338.221 575.123 338.358 575.207 338.549L577.374 343.261C577.447 343.412 577.472 343.552 577.45 343.681C577.433 343.804 577.377 343.902 577.282 343.975C577.187 344.042 577.064 344.076 576.912 344.076C576.722 344.076 576.574 344.031 576.467 343.941C576.366 343.852 576.277 343.712 576.198 343.521L575.694 342.354L576.215 342.715H572.713L573.233 342.354L572.738 343.521C572.654 343.717 572.564 343.86 572.469 343.95C572.379 344.034 572.245 344.076 572.066 344.076ZM574.451 339.464L573.376 342.026L573.149 341.699H575.778L575.552 342.026L574.468 339.464H574.451ZM578.944 344C578.765 344 578.628 343.952 578.533 343.857C578.438 343.762 578.39 343.63 578.39 343.462C578.39 343.289 578.438 343.157 578.533 343.068C578.628 342.978 578.765 342.933 578.944 342.933H579.793V339.145H580.406L579.18 339.893C579.051 339.971 578.93 340.002 578.818 339.985C578.712 339.968 578.62 339.921 578.541 339.842C578.463 339.764 578.41 339.671 578.382 339.565C578.359 339.453 578.37 339.344 578.415 339.237C578.46 339.125 578.544 339.03 578.667 338.952L579.835 338.246C579.952 338.174 580.07 338.115 580.188 338.07C580.311 338.025 580.431 338.003 580.549 338.003C580.717 338.003 580.848 338.048 580.944 338.137C581.044 338.221 581.095 338.353 581.095 338.532V342.933H581.859C582.033 342.933 582.167 342.978 582.262 343.068C582.357 343.157 582.405 343.289 582.405 343.462C582.405 343.636 582.357 343.77 582.262 343.866C582.167 343.955 582.033 344 581.859 344H578.944ZM584.132 344.076C583.97 344.076 583.838 344.039 583.737 343.966C583.636 343.888 583.578 343.787 583.561 343.664C583.544 343.541 583.578 343.404 583.662 343.252L586.089 338.75V339.153H583.552C583.368 339.153 583.228 339.109 583.133 339.019C583.037 338.924 582.99 338.789 582.99 338.616C582.99 338.442 583.037 338.311 583.133 338.221C583.228 338.126 583.368 338.078 583.552 338.078H586.753C586.932 338.078 587.077 338.126 587.189 338.221C587.307 338.316 587.366 338.451 587.366 338.624C587.366 338.775 587.343 338.907 587.299 339.019C587.259 339.131 587.206 339.251 587.139 339.38L584.871 343.656C584.793 343.801 584.695 343.908 584.577 343.975C584.46 344.042 584.311 344.076 584.132 344.076Z" fill="#FDFDFE"/>
<path d="M454.066 344.076C453.909 344.076 453.78 344.039 453.679 343.966C453.584 343.894 453.523 343.796 453.495 343.672C453.472 343.549 453.497 343.412 453.57 343.261L455.721 338.549C455.81 338.358 455.916 338.221 456.04 338.137C456.163 338.048 456.306 338.003 456.468 338.003C456.63 338.003 456.773 338.048 456.896 338.137C457.02 338.221 457.123 338.358 457.207 338.549L459.374 343.261C459.447 343.412 459.472 343.552 459.45 343.681C459.433 343.804 459.377 343.902 459.282 343.975C459.187 344.042 459.064 344.076 458.912 344.076C458.722 344.076 458.574 344.031 458.467 343.941C458.366 343.852 458.277 343.712 458.198 343.521L457.694 342.354L458.215 342.715H454.713L455.233 342.354L454.738 343.521C454.654 343.717 454.564 343.86 454.469 343.95C454.379 344.034 454.245 344.076 454.066 344.076ZM456.451 339.464L455.376 342.026L455.149 341.699H457.778L457.552 342.026L456.468 339.464H456.451ZM460.944 344C460.765 344 460.628 343.952 460.533 343.857C460.438 343.762 460.39 343.63 460.39 343.462C460.39 343.289 460.438 343.157 460.533 343.068C460.628 342.978 460.765 342.933 460.944 342.933H461.793V339.145H462.406L461.18 339.893C461.051 339.971 460.93 340.002 460.818 339.985C460.712 339.968 460.62 339.921 460.541 339.842C460.463 339.764 460.41 339.671 460.382 339.565C460.359 339.453 460.37 339.344 460.415 339.237C460.46 339.125 460.544 339.03 460.667 338.952L461.835 338.246C461.952 338.174 462.07 338.115 462.188 338.07C462.311 338.025 462.431 338.003 462.549 338.003C462.717 338.003 462.848 338.048 462.944 338.137C463.044 338.221 463.095 338.353 463.095 338.532V342.933H463.859C464.033 342.933 464.167 342.978 464.262 343.068C464.357 343.157 464.405 343.289 464.405 343.462C464.405 343.636 464.357 343.77 464.262 343.866C464.167 343.955 464.033 344 463.859 344H460.944ZM466.132 344.076C465.97 344.076 465.838 344.039 465.737 343.966C465.636 343.888 465.578 343.787 465.561 343.664C465.544 343.541 465.578 343.404 465.662 343.252L468.089 338.75V339.153H465.552C465.368 339.153 465.228 339.109 465.133 339.019C465.037 338.924 464.99 338.789 464.99 338.616C464.99 338.442 465.037 338.311 465.133 338.221C465.228 338.126 465.368 338.078 465.552 338.078H468.753C468.932 338.078 469.077 338.126 469.189 338.221C469.307 338.316 469.366 338.451 469.366 338.624C469.366 338.775 469.343 338.907 469.299 339.019C469.259 339.131 469.206 339.251 469.139 339.38L466.871 343.656C466.793 343.801 466.695 343.908 466.577 343.975C466.46 344.042 466.311 344.076 466.132 344.076Z" fill="#FDFDFE"/>
<path d="M513.066 344.076C512.909 344.076 512.78 344.039 512.679 343.966C512.584 343.894 512.523 343.796 512.495 343.672C512.472 343.549 512.497 343.412 512.57 343.261L514.721 338.549C514.81 338.358 514.916 338.221 515.04 338.137C515.163 338.048 515.306 338.003 515.468 338.003C515.63 338.003 515.773 338.048 515.896 338.137C516.02 338.221 516.123 338.358 516.207 338.549L518.374 343.261C518.447 343.412 518.472 343.552 518.45 343.681C518.433 343.804 518.377 343.902 518.282 343.975C518.187 344.042 518.064 344.076 517.912 344.076C517.722 344.076 517.574 344.031 517.467 343.941C517.366 343.852 517.277 343.712 517.198 343.521L516.694 342.354L517.215 342.715H513.713L514.233 342.354L513.738 343.521C513.654 343.717 513.564 343.86 513.469 343.95C513.379 344.034 513.245 344.076 513.066 344.076ZM515.451 339.464L514.376 342.026L514.149 341.699H516.778L516.552 342.026L515.468 339.464H515.451ZM519.944 344C519.765 344 519.628 343.952 519.533 343.857C519.438 343.762 519.39 343.63 519.39 343.462C519.39 343.289 519.438 343.157 519.533 343.068C519.628 342.978 519.765 342.933 519.944 342.933H520.793V339.145H521.406L520.18 339.893C520.051 339.971 519.93 340.002 519.818 339.985C519.712 339.968 519.62 339.921 519.541 339.842C519.463 339.764 519.41 339.671 519.382 339.565C519.359 339.453 519.37 339.344 519.415 339.237C519.46 339.125 519.544 339.03 519.667 338.952L520.835 338.246C520.952 338.174 521.07 338.115 521.188 338.07C521.311 338.025 521.431 338.003 521.549 338.003C521.717 338.003 521.848 338.048 521.944 338.137C522.044 338.221 522.095 338.353 522.095 338.532V342.933H522.859C523.033 342.933 523.167 342.978 523.262 343.068C523.357 343.157 523.405 343.289 523.405 343.462C523.405 343.636 523.357 343.77 523.262 343.866C523.167 343.955 523.033 344 522.859 344H519.944ZM525.132 344.076C524.97 344.076 524.838 344.039 524.737 343.966C524.636 343.888 524.578 343.787 524.561 343.664C524.544 343.541 524.578 343.404 524.662 343.252L527.089 338.75V339.153H524.552C524.368 339.153 524.228 339.109 524.133 339.019C524.037 338.924 523.99 338.789 523.99 338.616C523.99 338.442 524.037 338.311 524.133 338.221C524.228 338.126 524.368 338.078 524.552 338.078H527.753C527.932 338.078 528.077 338.126 528.189 338.221C528.307 338.316 528.366 338.451 528.366 338.624C528.366 338.775 528.343 338.907 528.299 339.019C528.259 339.131 528.206 339.251 528.139 339.38L525.871 343.656C525.793 343.801 525.695 343.908 525.577 343.975C525.46 344.042 525.311 344.076 525.132 344.076Z" fill="#FDFDFE"/>
<path d="M640.066 387.076C639.909 387.076 639.78 387.039 639.679 386.966C639.584 386.894 639.523 386.796 639.495 386.672C639.472 386.549 639.497 386.412 639.57 386.261L641.721 381.549C641.81 381.358 641.916 381.221 642.04 381.137C642.163 381.048 642.306 381.003 642.468 381.003C642.63 381.003 642.773 381.048 642.896 381.137C643.02 381.221 643.123 381.358 643.207 381.549L645.374 386.261C645.447 386.412 645.472 386.552 645.45 386.681C645.433 386.804 645.377 386.902 645.282 386.975C645.187 387.042 645.064 387.076 644.912 387.076C644.722 387.076 644.574 387.031 644.467 386.941C644.366 386.852 644.277 386.712 644.198 386.521L643.694 385.354L644.215 385.715H640.713L641.233 385.354L640.738 386.521C640.654 386.717 640.564 386.86 640.469 386.95C640.379 387.034 640.245 387.076 640.066 387.076ZM642.451 382.464L641.376 385.026L641.149 384.699H643.778L643.552 385.026L642.468 382.464H642.451ZM646.944 387C646.765 387 646.628 386.952 646.533 386.857C646.438 386.762 646.39 386.63 646.39 386.462C646.39 386.289 646.438 386.157 646.533 386.068C646.628 385.978 646.765 385.933 646.944 385.933H647.793V382.145H648.406L647.18 382.893C647.051 382.971 646.93 383.002 646.818 382.985C646.712 382.968 646.62 382.921 646.541 382.842C646.463 382.764 646.41 382.671 646.382 382.565C646.359 382.453 646.37 382.344 646.415 382.237C646.46 382.125 646.544 382.03 646.667 381.952L647.835 381.246C647.952 381.174 648.07 381.115 648.188 381.07C648.311 381.025 648.431 381.003 648.549 381.003C648.717 381.003 648.848 381.048 648.944 381.137C649.044 381.221 649.095 381.353 649.095 381.532V385.933H649.859C650.033 385.933 650.167 385.978 650.262 386.068C650.357 386.157 650.405 386.289 650.405 386.462C650.405 386.636 650.357 386.77 650.262 386.866C650.167 386.955 650.033 387 649.859 387H646.944ZM652.132 387.076C651.97 387.076 651.838 387.039 651.737 386.966C651.636 386.888 651.578 386.787 651.561 386.664C651.544 386.541 651.578 386.404 651.662 386.252L654.089 381.75V382.153H651.552C651.368 382.153 651.228 382.109 651.133 382.019C651.037 381.924 650.99 381.789 650.99 381.616C650.99 381.442 651.037 381.311 651.133 381.221C651.228 381.126 651.368 381.078 651.552 381.078H654.753C654.932 381.078 655.077 381.126 655.189 381.221C655.307 381.316 655.366 381.451 655.366 381.624C655.366 381.775 655.343 381.907 655.299 382.019C655.259 382.131 655.206 382.251 655.139 382.38L652.871 386.656C652.793 386.801 652.695 386.908 652.577 386.975C652.46 387.042 652.311 387.076 652.132 387.076Z" fill="#FDFDFE"/>
<path d="M685.066 476.076C684.909 476.076 684.78 476.039 684.679 475.966C684.584 475.894 684.523 475.796 684.495 475.672C684.472 475.549 684.497 475.412 684.57 475.261L686.721 470.549C686.81 470.358 686.916 470.221 687.04 470.137C687.163 470.048 687.306 470.003 687.468 470.003C687.63 470.003 687.773 470.048 687.896 470.137C688.02 470.221 688.123 470.358 688.207 470.549L690.374 475.261C690.447 475.412 690.472 475.552 690.45 475.681C690.433 475.804 690.377 475.902 690.282 475.975C690.187 476.042 690.064 476.076 689.912 476.076C689.722 476.076 689.574 476.031 689.467 475.941C689.366 475.852 689.277 475.712 689.198 475.521L688.694 474.354L689.215 474.715H685.713L686.233 474.354L685.738 475.521C685.654 475.717 685.564 475.86 685.469 475.95C685.379 476.034 685.245 476.076 685.066 476.076ZM687.451 471.464L686.376 474.026L686.149 473.699H688.778L688.552 474.026L687.468 471.464H687.451ZM691.944 476C691.765 476 691.628 475.952 691.533 475.857C691.438 475.762 691.39 475.63 691.39 475.462C691.39 475.289 691.438 475.157 691.533 475.068C691.628 474.978 691.765 474.933 691.944 474.933H692.793V471.145H693.406L692.18 471.893C692.051 471.971 691.93 472.002 691.818 471.985C691.712 471.968 691.62 471.921 691.541 471.842C691.463 471.764 691.41 471.671 691.382 471.565C691.359 471.453 691.37 471.344 691.415 471.237C691.46 471.125 691.544 471.03 691.667 470.952L692.835 470.246C692.952 470.174 693.07 470.115 693.188 470.07C693.311 470.025 693.431 470.003 693.549 470.003C693.717 470.003 693.848 470.048 693.944 470.137C694.044 470.221 694.095 470.353 694.095 470.532V474.933H694.859C695.033 474.933 695.167 474.978 695.262 475.068C695.357 475.157 695.405 475.289 695.405 475.462C695.405 475.636 695.357 475.77 695.262 475.866C695.167 475.955 695.033 476 694.859 476H691.944ZM697.132 476.076C696.97 476.076 696.838 476.039 696.737 475.966C696.636 475.888 696.578 475.787 696.561 475.664C696.544 475.541 696.578 475.404 696.662 475.252L699.089 470.75V471.153H696.552C696.368 471.153 696.228 471.109 696.133 471.019C696.037 470.924 695.99 470.789 695.99 470.616C695.99 470.442 696.037 470.311 696.133 470.221C696.228 470.126 696.368 470.078 696.552 470.078H699.753C699.932 470.078 700.077 470.126 700.189 470.221C700.307 470.316 700.366 470.451 700.366 470.624C700.366 470.775 700.343 470.907 700.299 471.019C700.259 471.131 700.206 471.251 700.139 471.38L697.871 475.656C697.793 475.801 697.695 475.908 697.577 475.975C697.46 476.042 697.311 476.076 697.132 476.076Z" fill="#FDFDFE"/>
</svg>
